<!DOCTYPE svg PUBLIC "-//W3C//DTD SVG 1.1//EN" "http://www.w3.org/Graphics/SVG/1.1/DTD/svg11.dtd">
<!-- Uploaded to: SVG Repo, www.svgrepo.com, Transformed by: SVG Repo Mixer Tools -->
<svg width="800px" height="800px" viewBox="0 0 24 24" xmlns="http://www.w3.org/2000/svg" fill="none" stroke="#4B8240">
<g id="SVGRepo_bgCarrier" stroke-width="0"/>
<g id="SVGRepo_tracerCarrier" stroke-linecap="round" stroke-linejoin="round"/>
<g id="SVGRepo_iconCarrier">
<path fill="#4B8240" fill-rule="evenodd" d="M3 6a3 3 0 0 1 3-3h12a3 3 0 0 1 3 3v12a3 3 0 0 1-3 3H6a3 3 0 0 1-3-3V6zm10 2a1 1 0 1 0-2 0v8a1 1 0 1 0 2 0V8zm-4 3a1 1 0 1 0-2 0v5a1 1 0 1 0 2 0v-5zm8 3a1 1 0 1 0-2 0v2a1 1 0 1 0 2 0v-2z" clip-rule="evenodd"/>
</g>
</svg>