<?xml version="1.0" encoding="utf-8"?>
<svg viewBox="0 0 447.699 457.461" xmlns="http://www.w3.org/2000/svg">
  <g id="freepik--Floor--inject-18" transform="matrix(-1, 0, 0, 1, 424.70575, -16.456074)">
    <ellipse id="freepik--floor--inject-18" cx="200.462" cy="349.602" rx="221.46" ry="115.3" style="fill:#f5f5f5"/>
  </g>
  <g id="freepik--Shadows--inject-18" transform="matrix(-1, 0, 0, 1, 424.70575, -16.456074)">
    <path id="freepik--Shadow--inject-18" d="M295.49,370.26c-20.74-12-54.35-12-75.09,0-17.57,10.15-20.24,25.64-8,37.41a8.48,8.48,0,0,0-2,.81l-65.5,37.81c-2.78,1.61-2.78,4.21,0,5.82l4.1,2.36a10.33,10.33,0,0,0,9.9-.27l61-39.93a5,5,0,0,0,.7-.55c20.75,11.86,54.22,11.82,74.89-.11S316.22,382.23,295.49,370.26Z" style="fill:#e0e0e0"/>
    <path id="freepik--shadow--inject-18" d="M77.49,422.63l227.2-131.12a1.32,1.32,0,0,0,0-2.5l-11.93-6.93a4.74,4.74,0,0,0-4.32,0L61.24,413.25a1.32,1.32,0,0,0,0,2.5l11.92,6.88A4.79,4.79,0,0,0,77.49,422.63Z" style="fill:#e0e0e0"/>
  </g>
  <g id="freepik--chart-3--inject-18" transform="matrix(-1, 0, 0, 1, 424.70575, -16.456074)">
    <g id="freepik--window-chart--inject-18">
      <g id="freepik--Window--inject-18">
        <path d="M296.12,202.12a3.31,3.31,0,0,0-3.44.28l-61,35.18a10.47,10.47,0,0,0-4.73,8.2v6.83h0V318a5.34,5.34,0,0,0,0,.69,5,5,0,0,0,2.48,3.68l5,2.89.24.14a3.25,3.25,0,0,1-1.7-2.86V258.79h0v-9.57A10.52,10.52,0,0,1,237.8,241l60.94-35.18a3.45,3.45,0,0,1,3.19-.4C300.91,204.89,297,202.63,296.12,202.12Z" style="fill:#263238"/>
        <path d="M303.45,208a1.56,1.56,0,0,0-.08-.43s0-.07,0-.1a2.58,2.58,0,0,0-.11-.42,2.06,2.06,0,0,0-.28-.6.72.72,0,0,0-.16-.25.47.47,0,0,0-.14-.17,1.34,1.34,0,0,0-.31-.32l0,0a2,2,0,0,0-.4-.23,3.45,3.45,0,0,0-3.19.4L237.8,241a10.52,10.52,0,0,0-4.74,8.22v73.36h0a3.24,3.24,0,0,0,4.86,2.81l60.82-35.19a10.48,10.48,0,0,0,4.74-8.21V208.56A5.68,5.68,0,0,0,303.45,208Z" style="fill:#455a64"/>
        <path d="M298.73,205.83,237.8,241a9.78,9.78,0,0,0-3.34,3.52l-6-3.49a9.49,9.49,0,0,1,3.3-3.46l60.94-35.18a3.31,3.31,0,0,1,3.44-.28c.85.52,4.79,2.75,5.79,3.29A3.45,3.45,0,0,0,298.73,205.83Z" style="fill:#37474f"/>
      </g>
      <g id="freepik--Chart--inject-18">
        <path d="M268.93,265.57V242.83c6-3.43,11.52,0,13.44,8.07,2.37,9.94-1.58,25.43-8.87,33.66Z" style="fill:#599D4C"/>
        <path d="M268.19,288.05a10.39,10.39,0,0,1-3.67,1.33l3.67-19.55,3.68,15.3A17.53,17.53,0,0,1,268.19,288.05Z" style="fill:#599D4C"/>
        <g style="opacity:0.4">
          <path d="M268.19,288.05a10.39,10.39,0,0,1-3.67,1.33l3.67-19.55,3.68,15.3A17.53,17.53,0,0,1,268.19,288.05Z" style="fill:#fff"/>
        </g>
        <path d="M262.89,290.69c-4,.15-7.23-3-8.63-8.32l12.79-13.78Z" style="fill:#599D4C"/>
        <g style="opacity:0.6000000000000001">
          <path d="M262.89,290.69c-4,.15-7.23-3-8.63-8.32l12.79-13.78Z" style="fill:#fff"/>
        </g>
        <path d="M254.5,279.74a27,27,0,0,1-.48-5.38c0-11.65,6-24.65,13.44-29.55v21Z" style="fill:#599D4C"/>
        <g style="opacity:0.75">
          <path d="M254.5,279.74a27,27,0,0,1-.48-5.38c0-11.65,6-24.65,13.44-29.55v21Z" style="fill:#fff"/>
        </g>
        <path d="M278.5,252.79s0-.11,0-.23a.76.76,0,0,1,.22-.39l.88-.5c.08,0,.11.05.06.22a.74.74,0,0,1-.23.39l-.87.51S278.51,252.8,278.5,252.79Zm1.74-1s0-.11,0-.22a.74.74,0,0,1,.23-.39l.87-.51c.09,0,.11.05.06.22a.68.68,0,0,1-.22.39l-.88.51S280.26,251.79,280.24,251.78Zm1.75-1s0-.11,0-.22a.72.72,0,0,1,.23-.39l.87-.51c.08,0,.11.06.06.23a.79.79,0,0,1-.23.39l-.87.5S282,250.79,282,250.77Zm1.74-1s0-.11,0-.23a.79.79,0,0,1,.23-.39l.87-.5c.09-.05.11,0,.07.22a.79.79,0,0,1-.23.39l-.88.5A0,0,0,0,1,283.73,249.77Zm1.75-1s0-.11,0-.23a.72.72,0,0,1,.23-.39l.87-.5c.08,0,.11.05.06.22a.74.74,0,0,1-.23.39l-.87.51S285.49,248.77,285.48,248.76Zm1.74-1s0-.11,0-.22a.74.74,0,0,1,.23-.39l.65-.38c.08,0,.11.05.06.23a.84.84,0,0,1-.23.39l-.65.37S287.24,247.76,287.22,247.75Z" style="fill:#f0f0f0"/>
        <path d="M248.81,268.36s0-.11,0-.23a.79.79,0,0,1,.23-.39l.87-.5c.09-.05.11.05.07.22a.74.74,0,0,1-.23.39l-.88.51Zm1.75-1s0-.11,0-.22a.76.76,0,0,1,.23-.4l.87-.5c.08-.05.11,0,.06.22a.68.68,0,0,1-.23.39l-.87.51Zm1.74-1s0-.11,0-.22a.74.74,0,0,1,.23-.39l.87-.51c.09-.05.11,0,.07.23a.79.79,0,0,1-.23.39l-.88.5A0,0,0,0,1,252.3,266.34Zm1.75-1s0-.11,0-.22a.72.72,0,0,1,.23-.39l.87-.5c.08-.05.11,0,.06.22a.72.72,0,0,1-.23.39l-.87.5S254.06,265.35,254.05,265.33Zm1.74-1a.33.33,0,0,1,0-.23.79.79,0,0,1,.23-.39l.88-.5c.08,0,.11.05.06.22a.79.79,0,0,1-.23.39l-.87.51Zm1.75-1s0-.11,0-.23a.84.84,0,0,1,.23-.39l.62-.36c.08,0,.11.06.06.23a.72.72,0,0,1-.22.39l-.63.36Z" style="fill:#f0f0f0"/>
        <path d="M277.13,253.35a1.41,1.41,0,0,1,.54-1.14c.3-.17.54.06.54.52a1.41,1.41,0,0,1-.54,1.14C277.37,254,277.13,253.81,277.13,253.35Z" style="fill:#455a64"/>
        <path d="M258,262.85a1.41,1.41,0,0,1,.54-1.14c.3-.18.54.06.54.51a1.41,1.41,0,0,1-.54,1.14C258.21,263.53,258,263.3,258,262.85Z" style="fill:#455a64"/>
        <path d="M267.66,286.11a1.43,1.43,0,0,1,.53-1.13c.3-.18.54.06.54.51a1.41,1.41,0,0,1-.54,1.14C267.9,286.8,267.66,286.57,267.66,286.11Z" style="fill:#455a64"/>
        <path d="M291.5,246.7a.06.06,0,0,1-.07,0,.12.12,0,0,1,0-.09v-.68l-1.13.66a.06.06,0,0,1-.07,0,.12.12,0,0,1,0-.09v-.4a.77.77,0,0,1,0-.15l.06-.16,1.12-2.8a.5.5,0,0,1,.15-.23l.28-.16a0,0,0,0,1,.07,0s0,0,0,.09v2.25l.31-.18a.06.06,0,0,1,.07,0,.12.12,0,0,1,0,.09v.4a.31.31,0,0,1,0,.13s0,.07-.07.08l-.31.18v.69a.27.27,0,0,1,0,.12.35.35,0,0,1-.07.09Zm-.1-1.48V244l-.62,1.57Z" style="fill:#599D4C"/>
        <path d="M292.79,242.16a.27.27,0,0,1,0-.12.22.22,0,0,1,.07-.09l1.37-.79s.05,0,.07,0a.12.12,0,0,1,0,.09v.4a.27.27,0,0,1,0,.12.23.23,0,0,1-.06.09l-1,.59,0,.75a1.13,1.13,0,0,1,.19-.19l.16-.1a1,1,0,0,1,.38-.14.47.47,0,0,1,.31.08.65.65,0,0,1,.2.29,1.56,1.56,0,0,1,.07.52,2.3,2.3,0,0,1-.08.66,1.83,1.83,0,0,1-.2.54,1.9,1.9,0,0,1-.31.42,1.69,1.69,0,0,1-.37.29,1,1,0,0,1-.43.16.42.42,0,0,1-.3-.07.52.52,0,0,1-.18-.25,1.43,1.43,0,0,1-.07-.38.28.28,0,0,1,0-.13s0-.07.07-.08l.3-.17a0,0,0,0,1,.06,0s0,0,0,.07a.46.46,0,0,0,.07.17.19.19,0,0,0,.11.07.24.24,0,0,0,.14,0l.16-.07a.94.94,0,0,0,.34-.37,1.28,1.28,0,0,0,.13-.56.44.44,0,0,0-.13-.35.32.32,0,0,0-.34,0l-.17.13a.6.6,0,0,0-.11.12.86.86,0,0,1-.07.1.3.3,0,0,1-.08.08l-.34.19a.06.06,0,0,1-.07,0s0,0,0-.09Z" style="fill:#599D4C"/>
        <path d="M295.36,240.49a.49.49,0,0,1,.23-.07.3.3,0,0,1,.27.23.85.85,0,0,1,.05.24v.62a1.51,1.51,0,0,1-.05.28,1.11,1.11,0,0,1-.1.29,1,1,0,0,1-.17.25.71.71,0,0,1-.23.19.42.42,0,0,1-.23.08.24.24,0,0,1-.17-.06.32.32,0,0,1-.1-.17.86.86,0,0,1-.05-.23v-.63a1.66,1.66,0,0,1,.05-.28,1.29,1.29,0,0,1,.27-.54A.9.9,0,0,1,295.36,240.49Zm.19,1.17a.34.34,0,0,0,0-.11v-.31a.28.28,0,0,0,0-.1.39.39,0,0,0,0-.17s-.08,0-.15,0a.38.38,0,0,0-.15.16.78.78,0,0,0,0,.22.34.34,0,0,0,0,.11v.31a.25.25,0,0,0,0,.1.39.39,0,0,0,0,.17s.08,0,.15,0a.33.33,0,0,0,.15-.16A.78.78,0,0,0,295.55,241.66Zm1.28-1.88a1.17,1.17,0,0,1,.05-.11.27.27,0,0,1,.08-.07l.22-.13h.06s0,0,0,.07a.08.08,0,0,1,0,0,0,0,0,0,1,0,0l-1.81,4.71a.28.28,0,0,1-.05.11.2.2,0,0,1-.08.08l-.22.12a0,0,0,0,1-.06,0s0,0,0-.07v0a.08.08,0,0,1,0,0Zm.12,1.78a.38.38,0,0,1,.23-.07.25.25,0,0,1,.17.06.35.35,0,0,1,.1.17.79.79,0,0,1,0,.23,3,3,0,0,1,0,.31c0,.11,0,.21,0,.31a1.55,1.55,0,0,1,0,.29,1.57,1.57,0,0,1-.1.28,1.18,1.18,0,0,1-.4.45.43.43,0,0,1-.24.07.27.27,0,0,1-.17-.06.49.49,0,0,1-.1-.16.86.86,0,0,1,0-.24,2.91,2.91,0,0,1,0-.31c0-.11,0-.21,0-.31a2.7,2.7,0,0,1,0-.28,2.47,2.47,0,0,1,.1-.29,1.38,1.38,0,0,1,.17-.25A.78.78,0,0,1,297,241.56Zm.19,1.16v-.52a.3.3,0,0,0-.05-.16s-.07,0-.14,0a.31.31,0,0,0-.15.17.71.71,0,0,0-.05.22v.11a.76.76,0,0,0,0,.15c0,.05,0,.1,0,.15V243a.34.34,0,0,0,.05.16s.07,0,.15,0a.31.31,0,0,0,.14-.16A.79.79,0,0,0,297.14,242.72Z" style="fill:#599D4C"/>
        <path d="M240.88,269.63s.05,0,.07,0a.12.12,0,0,1,0,.09v.4a.31.31,0,0,1,0,.13c0,.05,0,.09,0,.13l-.53,1.17a.8.8,0,0,1,.29-.05.38.38,0,0,1,.23.11.48.48,0,0,1,.15.25,1.64,1.64,0,0,1,.05.41,2.12,2.12,0,0,1-.07.57,2.28,2.28,0,0,1-.21.51,2.59,2.59,0,0,1-.32.42,1.61,1.61,0,0,1-.39.31,1.27,1.27,0,0,1-.45.17.51.51,0,0,1-.31-.06.43.43,0,0,1-.19-.23.79.79,0,0,1-.08-.32.27.27,0,0,1,0-.12.22.22,0,0,1,.07-.09l.29-.16a0,0,0,0,1,.06,0l0,.08a.24.24,0,0,0,.06.09.19.19,0,0,0,.09.05.47.47,0,0,0,.16,0l.22-.1a1,1,0,0,0,.36-.35.86.86,0,0,0,.14-.47c0-.17,0-.27-.14-.29a.58.58,0,0,0-.36.1l-.31.18a.06.06,0,0,1-.07,0,.2.2,0,0,1,0-.09v-.4a.21.21,0,0,1,0-.13,1.34,1.34,0,0,1,.06-.12l.51-1.13-1,.59a.06.06,0,0,1-.07,0,.12.12,0,0,1,0-.09v-.4a.27.27,0,0,1,0-.12.22.22,0,0,1,.07-.09Z" style="fill:#599D4C"/>
        <path d="M243.43,269.62a1.77,1.77,0,0,1,0,.24v.53a1.85,1.85,0,0,1,0,.24,3.39,3.39,0,0,1-.06.64,2.61,2.61,0,0,1-.17.58,2.29,2.29,0,0,1-.3.5,1.49,1.49,0,0,1-.45.37.8.8,0,0,1-.46.15.4.4,0,0,1-.29-.15.78.78,0,0,1-.17-.39,3,3,0,0,1-.07-.57v-1a4.62,4.62,0,0,1,.07-.65,2.24,2.24,0,0,1,.17-.59,1.92,1.92,0,0,1,.29-.5,1.94,1.94,0,0,1,.46-.39.85.85,0,0,1,.45-.14.37.37,0,0,1,.3.15.88.88,0,0,1,.17.39A2.34,2.34,0,0,1,243.43,269.62ZM242,271.45a1.07,1.07,0,0,0,.13.56c.07.1.19.11.36,0a.8.8,0,0,0,.36-.43,2.31,2.31,0,0,0,.13-.71c0-.14,0-.3,0-.47s0-.33,0-.47a1,1,0,0,0-.13-.56c-.07-.11-.19-.11-.36,0a.8.8,0,0,0-.36.43,2,2,0,0,0-.13.7c0,.15,0,.31,0,.48S242,271.31,242,271.45Z" style="fill:#599D4C"/>
        <path d="M244.34,267.6a.41.41,0,0,1,.24-.07.23.23,0,0,1,.16.06.42.42,0,0,1,.11.17,1.57,1.57,0,0,1,0,.23c0,.09,0,.2,0,.31s0,.22,0,.32,0,.18,0,.28a1.62,1.62,0,0,1-.11.28,1.4,1.4,0,0,1-.16.26,1.12,1.12,0,0,1-.24.19.53.53,0,0,1-.23.08.43.43,0,0,1-.17-.06.48.48,0,0,1-.1-.17.86.86,0,0,1,0-.24,2.81,2.81,0,0,1,0-.3c0-.11,0-.22,0-.32a1.45,1.45,0,0,1,0-.28,1.66,1.66,0,0,1,.1-.29,1.38,1.38,0,0,1,.17-.25A.74.74,0,0,1,244.34,267.6Zm.2,1.16v-.52a.34.34,0,0,0,0-.16s-.08,0-.15,0a.32.32,0,0,0-.14.17.54.54,0,0,0,0,.22s0,.06,0,.11v.3c0,.05,0,.08,0,.11a.25.25,0,0,0,0,.16s.07,0,.14,0a.4.4,0,0,0,.15-.17A.79.79,0,0,0,244.54,268.76Zm1.27-1.87.05-.11a.18.18,0,0,1,.08-.07l.22-.13a.06.06,0,0,1,.07,0,.12.12,0,0,1,0,.07v0l0,0-1.8,4.71-.06.11a.19.19,0,0,1-.08.07l-.22.13s0,0-.06,0,0,0,0-.06v0s0,0,0,0Zm.12,1.77a.49.49,0,0,1,.23-.07.32.32,0,0,1,.17.06.4.4,0,0,1,.1.17.85.85,0,0,1,0,.23c0,.1,0,.2,0,.31s0,.22,0,.32a1.45,1.45,0,0,1,0,.28,1.33,1.33,0,0,1-.1.28,1.17,1.17,0,0,1-.17.26.71.71,0,0,1-.23.19.43.43,0,0,1-.24.08.23.23,0,0,1-.16-.06.42.42,0,0,1-.11-.17,1.57,1.57,0,0,1,0-.23c0-.1,0-.2,0-.31s0-.22,0-.32,0-.18,0-.28a1.36,1.36,0,0,1,.11-.28,1.4,1.4,0,0,1,.16-.26A1.16,1.16,0,0,1,245.93,268.66Zm.19,1.17a.4.4,0,0,0,0-.11c0-.05,0-.1,0-.16v-.15a.32.32,0,0,0,0-.1.26.26,0,0,0-.05-.17s-.07,0-.14,0a.33.33,0,0,0-.15.16.79.79,0,0,0-.05.22v.52a.3.3,0,0,0,.05.16s.08,0,.15,0a.29.29,0,0,0,.14-.17A.5.5,0,0,0,246.12,269.83Z" style="fill:#599D4C"/>
        <g style="opacity:0.75">
          <path d="M240.88,269.63s.05,0,.07,0a.12.12,0,0,1,0,.09v.4a.31.31,0,0,1,0,.13c0,.05,0,.09,0,.13l-.53,1.17a.8.8,0,0,1,.29-.05.38.38,0,0,1,.23.11.48.48,0,0,1,.15.25,1.64,1.64,0,0,1,.05.41,2.12,2.12,0,0,1-.07.57,2.28,2.28,0,0,1-.21.51,2.59,2.59,0,0,1-.32.42,1.61,1.61,0,0,1-.39.31,1.27,1.27,0,0,1-.45.17.51.51,0,0,1-.31-.06.43.43,0,0,1-.19-.23.79.79,0,0,1-.08-.32.27.27,0,0,1,0-.12.22.22,0,0,1,.07-.09l.29-.16a0,0,0,0,1,.06,0l0,.08a.24.24,0,0,0,.06.09.19.19,0,0,0,.09.05.47.47,0,0,0,.16,0l.22-.1a1,1,0,0,0,.36-.35.86.86,0,0,0,.14-.47c0-.17,0-.27-.14-.29a.58.58,0,0,0-.36.1l-.31.18a.06.06,0,0,1-.07,0,.2.2,0,0,1,0-.09v-.4a.21.21,0,0,1,0-.13,1.34,1.34,0,0,1,.06-.12l.51-1.13-1,.59a.06.06,0,0,1-.07,0,.12.12,0,0,1,0-.09v-.4a.27.27,0,0,1,0-.12.22.22,0,0,1,.07-.09Z" style="fill:#fff"/>
          <path d="M243.43,269.62a1.77,1.77,0,0,1,0,.24v.53a1.85,1.85,0,0,1,0,.24,3.39,3.39,0,0,1-.06.64,2.61,2.61,0,0,1-.17.58,2.29,2.29,0,0,1-.3.5,1.49,1.49,0,0,1-.45.37.8.8,0,0,1-.46.15.4.4,0,0,1-.29-.15.78.78,0,0,1-.17-.39,3,3,0,0,1-.07-.57v-1a4.62,4.62,0,0,1,.07-.65,2.24,2.24,0,0,1,.17-.59,1.92,1.92,0,0,1,.29-.5,1.94,1.94,0,0,1,.46-.39.85.85,0,0,1,.45-.14.37.37,0,0,1,.3.15.88.88,0,0,1,.17.39A2.34,2.34,0,0,1,243.43,269.62ZM242,271.45a1.07,1.07,0,0,0,.13.56c.07.1.19.11.36,0a.8.8,0,0,0,.36-.43,2.31,2.31,0,0,0,.13-.71c0-.14,0-.3,0-.47s0-.33,0-.47a1,1,0,0,0-.13-.56c-.07-.11-.19-.11-.36,0a.8.8,0,0,0-.36.43,2,2,0,0,0-.13.7c0,.15,0,.31,0,.48S242,271.31,242,271.45Z" style="fill:#fff"/>
          <path d="M244.34,267.6a.41.41,0,0,1,.24-.07.23.23,0,0,1,.16.06.42.42,0,0,1,.11.17,1.57,1.57,0,0,1,0,.23c0,.09,0,.2,0,.31s0,.22,0,.32,0,.18,0,.28a1.62,1.62,0,0,1-.11.28,1.4,1.4,0,0,1-.16.26,1.12,1.12,0,0,1-.24.19.53.53,0,0,1-.23.08.43.43,0,0,1-.17-.06.48.48,0,0,1-.1-.17.86.86,0,0,1,0-.24,2.81,2.81,0,0,1,0-.3c0-.11,0-.22,0-.32a1.45,1.45,0,0,1,0-.28,1.66,1.66,0,0,1,.1-.29,1.38,1.38,0,0,1,.17-.25A.74.74,0,0,1,244.34,267.6Zm.2,1.16v-.52a.34.34,0,0,0,0-.16s-.08,0-.15,0a.32.32,0,0,0-.14.17.54.54,0,0,0,0,.22s0,.06,0,.11v.3c0,.05,0,.08,0,.11a.25.25,0,0,0,0,.16s.07,0,.14,0a.4.4,0,0,0,.15-.17A.79.79,0,0,0,244.54,268.76Zm1.27-1.87.05-.11a.18.18,0,0,1,.08-.07l.22-.13a.06.06,0,0,1,.07,0,.12.12,0,0,1,0,.07v0l0,0-1.8,4.71-.06.11a.19.19,0,0,1-.08.07l-.22.13s0,0-.06,0,0,0,0-.06v0s0,0,0,0Zm.12,1.77a.49.49,0,0,1,.23-.07.32.32,0,0,1,.17.06.4.4,0,0,1,.1.17.85.85,0,0,1,0,.23c0,.1,0,.2,0,.31s0,.22,0,.32a1.45,1.45,0,0,1,0,.28,1.33,1.33,0,0,1-.1.28,1.17,1.17,0,0,1-.17.26.71.71,0,0,1-.23.19.43.43,0,0,1-.24.08.23.23,0,0,1-.16-.06.42.42,0,0,1-.11-.17,1.57,1.57,0,0,1,0-.23c0-.1,0-.2,0-.31s0-.22,0-.32,0-.18,0-.28a1.36,1.36,0,0,1,.11-.28,1.4,1.4,0,0,1,.16-.26A1.16,1.16,0,0,1,245.93,268.66Zm.19,1.17a.4.4,0,0,0,0-.11c0-.05,0-.1,0-.16v-.15a.32.32,0,0,0,0-.1.26.26,0,0,0-.05-.17s-.07,0-.14,0a.33.33,0,0,0-.15.16.79.79,0,0,0-.05.22v.52a.3.3,0,0,0,.05.16s.08,0,.15,0a.29.29,0,0,0,.14-.17A.5.5,0,0,0,246.12,269.83Z" style="fill:#fff"/>
        </g>
        <path d="M250.67,298.39s0-.11,0-.22a.83.83,0,0,1,.23-.4l.87-.5c.09,0,.11.05.07.22a.74.74,0,0,1-.23.39l-.88.51Zm1.75-1s0-.11,0-.22a.68.68,0,0,1,.23-.39l.87-.51c.08-.05.11.06.06.23a.76.76,0,0,1-.23.39l-.87.5A0,0,0,0,1,252.42,297.38Zm1.74-1s0-.11,0-.22a.79.79,0,0,1,.23-.39l.88-.5c.08-.05.1.05.06.22a.79.79,0,0,1-.23.39l-.88.5A0,0,0,0,1,254.16,296.37Zm1.75-1s0-.11,0-.23a.72.72,0,0,1,.23-.39l.87-.5c.08-.05.11.05.06.22a.72.72,0,0,1-.23.39l-.87.5S255.92,295.38,255.91,295.37Zm1.74-1a.33.33,0,0,1,0-.23.84.84,0,0,1,.23-.39l.88-.5c.08-.05.11.05.06.22a.74.74,0,0,1-.23.39l-.87.51Zm1.25-1.49a.13.13,0,0,1,0-.08v-1.34a.89.89,0,0,1,.17-.45c.09-.13.17-.13.17,0v1.34a1,1,0,0,1-.17.45C259,292.87,258.93,292.9,258.9,292.87Zm0-2.68a.2.2,0,0,1,0-.09v-1.34a.93.93,0,0,1,.17-.45c.09-.13.17-.13.17,0v1.34a.93.93,0,0,1-.17.45C259,290.19,258.93,290.21,258.9,290.19Zm0-2.69a.15.15,0,0,1,0-.08V286.1a1,1,0,0,1,.17-.45c.09-.13.17-.13.17,0V287a.89.89,0,0,1-.17.45C259,287.5,258.93,287.53,258.9,287.5Z" style="fill:#f0f0f0"/>
        <ellipse cx="259.05" cy="285.05" rx="0.91" ry="0.49" transform="matrix(0.29, -0.96, 0.96, 0.29, -89.47, 449.05)" style="fill:#455a64"/>
        <path d="M241.58,298.64s0,0,.07,0a.12.12,0,0,1,0,.09v.4a.31.31,0,0,1,0,.13.5.5,0,0,1-.05.13l-.53,1.17a.63.63,0,0,1,.29,0,.33.33,0,0,1,.23.1.48.48,0,0,1,.15.25,1.64,1.64,0,0,1,0,.41,2.12,2.12,0,0,1-.07.57,2.28,2.28,0,0,1-.21.51,2.59,2.59,0,0,1-.32.42,1.61,1.61,0,0,1-.39.31,1.27,1.27,0,0,1-.45.17.51.51,0,0,1-.31-.06.46.46,0,0,1-.19-.22.89.89,0,0,1-.08-.33.27.27,0,0,1,0-.12s0-.07.07-.08l.29-.17a0,0,0,0,1,.06,0l.05.08a.24.24,0,0,0,.06.09.19.19,0,0,0,.09.05.47.47,0,0,0,.16,0l.22-.1a1,1,0,0,0,.36-.35.86.86,0,0,0,.14-.47c0-.17-.05-.26-.14-.29a.65.65,0,0,0-.36.1l-.31.18s-.05,0-.06,0a.12.12,0,0,1,0-.09v-.4a.69.69,0,0,1,0-.13l.06-.12.51-1.13-1,.59a.06.06,0,0,1-.07,0,.12.12,0,0,1,0-.09v-.4a.27.27,0,0,1,0-.12.22.22,0,0,1,.07-.09Z" style="fill:#599D4C"/>
        <path d="M244.13,298.64a1.55,1.55,0,0,1,0,.23v.53a1.77,1.77,0,0,1,0,.24,3.39,3.39,0,0,1-.06.64,2.61,2.61,0,0,1-.17.58,1.59,1.59,0,0,1-.3.5,1.49,1.49,0,0,1-.45.37.79.79,0,0,1-.45.15.37.37,0,0,1-.3-.15.78.78,0,0,1-.17-.39,3,3,0,0,1-.07-.56v-.49c0-.18,0-.34,0-.49a3.49,3.49,0,0,1,.06-.65,2.24,2.24,0,0,1,.17-.59,1.87,1.87,0,0,1,.75-.89.85.85,0,0,1,.45-.14.4.4,0,0,1,.3.15.78.78,0,0,1,.17.39A2.37,2.37,0,0,1,244.13,298.64Zm-1.47,1.82a1,1,0,0,0,.13.56c.07.1.19.11.36,0a.8.8,0,0,0,.36-.43,2,2,0,0,0,.13-.71c0-.14,0-.3,0-.47s0-.33,0-.47a1.07,1.07,0,0,0-.13-.56c-.07-.1-.19-.11-.36,0a.8.8,0,0,0-.36.43,2,2,0,0,0-.13.71c0,.14,0,.3,0,.47S242.65,300.32,242.66,300.46Z" style="fill:#599D4C"/>
        <path d="M245,296.61a.41.41,0,0,1,.24-.07.23.23,0,0,1,.16.06.42.42,0,0,1,.11.17,1.57,1.57,0,0,1,0,.23c0,.1,0,.2,0,.31s0,.22,0,.32,0,.18,0,.28a1.36,1.36,0,0,1-.11.28,1.13,1.13,0,0,1-.16.26,1.12,1.12,0,0,1-.24.19.53.53,0,0,1-.23.08.25.25,0,0,1-.17-.06.48.48,0,0,1-.1-.17.85.85,0,0,1,0-.23c0-.1,0-.2,0-.31s0-.22,0-.32a1.45,1.45,0,0,1,0-.28,1.33,1.33,0,0,1,.1-.28,1.17,1.17,0,0,1,.17-.26A.74.74,0,0,1,245,296.61Zm.2,1.16v-.52a.34.34,0,0,0-.05-.16s-.08,0-.15,0a.32.32,0,0,0-.14.17.54.54,0,0,0-.05.22s0,.06,0,.11v.3c0,.05,0,.09,0,.11a.25.25,0,0,0,.05.16s.07,0,.14,0a.35.35,0,0,0,.15-.17A.79.79,0,0,0,245.24,297.77Zm1.27-1.87.05-.11a.27.27,0,0,1,.08-.07l.22-.13a.06.06,0,0,1,.07,0,.12.12,0,0,1,0,.07v0a.06.06,0,0,0,0,0l-1.81,4.71-.06.11a.16.16,0,0,1-.07.07l-.22.13a.06.06,0,0,1-.07,0,.14.14,0,0,1,0-.07v0s0,0,0,0Zm.12,1.77a.49.49,0,0,1,.23-.07.32.32,0,0,1,.17.06.48.48,0,0,1,.1.17.61.61,0,0,1,0,.24,2.81,2.81,0,0,1,0,.3c0,.11,0,.22,0,.32a1.45,1.45,0,0,1,0,.28,1.66,1.66,0,0,1-.1.29,1.38,1.38,0,0,1-.17.25.71.71,0,0,1-.23.19.43.43,0,0,1-.24.08.23.23,0,0,1-.16-.06.42.42,0,0,1-.11-.17,1.57,1.57,0,0,1,0-.23v-.63c0-.09,0-.18,0-.28a1.62,1.62,0,0,1,.11-.28,1.4,1.4,0,0,1,.16-.26A1.16,1.16,0,0,1,246.63,297.67Zm.19,1.17s0-.06,0-.11v-.31c0-.05,0-.08,0-.1a.29.29,0,0,0,0-.17s-.07,0-.14,0a.33.33,0,0,0-.15.16.79.79,0,0,0,0,.22v.52a.3.3,0,0,0,0,.16s.08,0,.15,0a.31.31,0,0,0,.14-.16A.54.54,0,0,0,246.82,298.84Z" style="fill:#599D4C"/>
        <g style="opacity:0.6000000000000001">
          <path d="M241.58,298.64s0,0,.07,0a.12.12,0,0,1,0,.09v.4a.31.31,0,0,1,0,.13.5.5,0,0,1-.05.13l-.53,1.17a.63.63,0,0,1,.29,0,.33.33,0,0,1,.23.1.48.48,0,0,1,.15.25,1.64,1.64,0,0,1,0,.41,2.12,2.12,0,0,1-.07.57,2.28,2.28,0,0,1-.21.51,2.59,2.59,0,0,1-.32.42,1.61,1.61,0,0,1-.39.31,1.27,1.27,0,0,1-.45.17.51.51,0,0,1-.31-.06.46.46,0,0,1-.19-.22.89.89,0,0,1-.08-.33.27.27,0,0,1,0-.12s0-.07.07-.08l.29-.17a0,0,0,0,1,.06,0l.05.08a.24.24,0,0,0,.06.09.19.19,0,0,0,.09.05.47.47,0,0,0,.16,0l.22-.1a1,1,0,0,0,.36-.35.86.86,0,0,0,.14-.47c0-.17-.05-.26-.14-.29a.65.65,0,0,0-.36.1l-.31.18s-.05,0-.06,0a.12.12,0,0,1,0-.09v-.4a.69.69,0,0,1,0-.13l.06-.12.51-1.13-1,.59a.06.06,0,0,1-.07,0,.12.12,0,0,1,0-.09v-.4a.27.27,0,0,1,0-.12.22.22,0,0,1,.07-.09Z" style="fill:#fff"/>
          <path d="M244.13,298.64a1.55,1.55,0,0,1,0,.23v.53a1.77,1.77,0,0,1,0,.24,3.39,3.39,0,0,1-.06.64,2.61,2.61,0,0,1-.17.58,1.59,1.59,0,0,1-.3.5,1.49,1.49,0,0,1-.45.37.79.79,0,0,1-.45.15.37.37,0,0,1-.3-.15.78.78,0,0,1-.17-.39,3,3,0,0,1-.07-.56v-.49c0-.18,0-.34,0-.49a3.49,3.49,0,0,1,.06-.65,2.24,2.24,0,0,1,.17-.59,1.87,1.87,0,0,1,.75-.89.85.85,0,0,1,.45-.14.4.4,0,0,1,.3.15.78.78,0,0,1,.17.39A2.37,2.37,0,0,1,244.13,298.64Zm-1.47,1.82a1,1,0,0,0,.13.56c.07.1.19.11.36,0a.8.8,0,0,0,.36-.43,2,2,0,0,0,.13-.71c0-.14,0-.3,0-.47s0-.33,0-.47a1.07,1.07,0,0,0-.13-.56c-.07-.1-.19-.11-.36,0a.8.8,0,0,0-.36.43,2,2,0,0,0-.13.71c0,.14,0,.3,0,.47S242.65,300.32,242.66,300.46Z" style="fill:#fff"/>
          <path d="M245,296.61a.41.41,0,0,1,.24-.07.23.23,0,0,1,.16.06.42.42,0,0,1,.11.17,1.57,1.57,0,0,1,0,.23c0,.1,0,.2,0,.31s0,.22,0,.32,0,.18,0,.28a1.36,1.36,0,0,1-.11.28,1.13,1.13,0,0,1-.16.26,1.12,1.12,0,0,1-.24.19.53.53,0,0,1-.23.08.25.25,0,0,1-.17-.06.48.48,0,0,1-.1-.17.85.85,0,0,1,0-.23c0-.1,0-.2,0-.31s0-.22,0-.32a1.45,1.45,0,0,1,0-.28,1.33,1.33,0,0,1,.1-.28,1.17,1.17,0,0,1,.17-.26A.74.74,0,0,1,245,296.61Zm.2,1.16v-.52a.34.34,0,0,0-.05-.16s-.08,0-.15,0a.32.32,0,0,0-.14.17.54.54,0,0,0-.05.22s0,.06,0,.11v.3c0,.05,0,.09,0,.11a.25.25,0,0,0,.05.16s.07,0,.14,0a.35.35,0,0,0,.15-.17A.79.79,0,0,0,245.24,297.77Zm1.27-1.87.05-.11a.27.27,0,0,1,.08-.07l.22-.13a.06.06,0,0,1,.07,0,.12.12,0,0,1,0,.07v0a.06.06,0,0,0,0,0l-1.81,4.71-.06.11a.16.16,0,0,1-.07.07l-.22.13a.06.06,0,0,1-.07,0,.14.14,0,0,1,0-.07v0s0,0,0,0Zm.12,1.77a.49.49,0,0,1,.23-.07.32.32,0,0,1,.17.06.48.48,0,0,1,.1.17.61.61,0,0,1,0,.24,2.81,2.81,0,0,1,0,.3c0,.11,0,.22,0,.32a1.45,1.45,0,0,1,0,.28,1.66,1.66,0,0,1-.1.29,1.38,1.38,0,0,1-.17.25.71.71,0,0,1-.23.19.43.43,0,0,1-.24.08.23.23,0,0,1-.16-.06.42.42,0,0,1-.11-.17,1.57,1.57,0,0,1,0-.23v-.63c0-.09,0-.18,0-.28a1.62,1.62,0,0,1,.11-.28,1.4,1.4,0,0,1,.16-.26A1.16,1.16,0,0,1,246.63,297.67Zm.19,1.17s0-.06,0-.11v-.31c0-.05,0-.08,0-.1a.29.29,0,0,0,0-.17s-.07,0-.14,0a.33.33,0,0,0-.15.16.79.79,0,0,0,0,.22v.52a.3.3,0,0,0,0,.16s.08,0,.15,0a.31.31,0,0,0,.14-.16A.54.54,0,0,0,246.82,298.84Z" style="fill:#fff"/>
        </g>
        <path d="M287.34,279.21a.15.15,0,0,1,0-.1.28.28,0,0,1,0-.12l.79-1.43.06-.1.07-.07.29-.16a0,0,0,0,1,.06,0,.13.13,0,0,1,0,.09V281a.5.5,0,0,1,0,.12.19.19,0,0,1-.07.08l-.3.18a.06.06,0,0,1-.07,0,.12.12,0,0,1,0-.09v-2.78l-.52.92a.19.19,0,0,1-.07.08s-.05,0-.07,0Z" style="fill:#599D4C"/>
        <path d="M291.1,277.24v1a4.46,4.46,0,0,1-.07.65,2.28,2.28,0,0,1-.17.58,1.66,1.66,0,0,1-.3.49,1.52,1.52,0,0,1-.45.38,1,1,0,0,1-.45.15.42.42,0,0,1-.3-.15.94.94,0,0,1-.17-.39,3.22,3.22,0,0,1-.06-.57c0-.14,0-.3,0-.48s0-.35,0-.49a3.42,3.42,0,0,1,.06-.65,2.7,2.7,0,0,1,.17-.59,1.63,1.63,0,0,1,.3-.51,1.52,1.52,0,0,1,.45-.38.85.85,0,0,1,.45-.14.36.36,0,0,1,.3.14.83.83,0,0,1,.17.39A3.17,3.17,0,0,1,291.1,277.24Zm-1.48,1.83a1,1,0,0,0,.13.55c.07.11.19.11.36,0a.83.83,0,0,0,.37-.43,2.26,2.26,0,0,0,.12-.7c0-.15,0-.3,0-.48s0-.33,0-.47a1.12,1.12,0,0,0-.12-.55c-.08-.11-.2-.11-.37,0a.77.77,0,0,0-.36.43,2,2,0,0,0-.13.7c0,.15,0,.3,0,.48S289.62,278.93,289.62,279.07Z" style="fill:#599D4C"/>
        <path d="M292,275.22a.43.43,0,0,1,.24-.08.29.29,0,0,1,.16.07.38.38,0,0,1,.11.16.86.86,0,0,1,0,.24c0,.09,0,.19,0,.3s0,.22,0,.32,0,.18,0,.28a1.45,1.45,0,0,1-.11.29,1.32,1.32,0,0,1-.16.25,1.16,1.16,0,0,1-.24.2.46.46,0,0,1-.23.07.25.25,0,0,1-.17-.06.4.4,0,0,1-.1-.17.79.79,0,0,1,0-.23,3,3,0,0,1,0-.31c0-.11,0-.21,0-.32a1.44,1.44,0,0,1,.14-.56,1.45,1.45,0,0,1,.17-.26A.83.83,0,0,1,292,275.22Zm.2,1.16v-.52a.38.38,0,0,0-.05-.17s-.08,0-.15,0a.31.31,0,0,0-.14.16.79.79,0,0,0-.05.22.49.49,0,0,1,0,.11v.31a.46.46,0,0,1,0,.1.29.29,0,0,0,.05.17s.07,0,.14,0a.33.33,0,0,0,.15-.16A.79.79,0,0,0,292.2,276.38Zm1.27-1.88.06-.11a.16.16,0,0,1,.07-.07l.22-.13h.07a.1.1,0,0,1,0,.07v0s0,0,0,0L292.09,279l0,.1-.08.08-.22.12a.06.06,0,0,1-.07,0,.1.1,0,0,1,0-.07v0s0,0,0,0Zm.12,1.78a.4.4,0,0,1,.23-.07.24.24,0,0,1,.17.06.32.32,0,0,1,.1.17.78.78,0,0,1,.05.23v.62a1.6,1.6,0,0,1-.05.29,1,1,0,0,1-.1.28.85.85,0,0,1-.17.25.74.74,0,0,1-.23.2.4.4,0,0,1-.23.07.24.24,0,0,1-.17-.06.29.29,0,0,1-.1-.16.86.86,0,0,1,0-.23v-.63a1.51,1.51,0,0,1,0-.28,1.11,1.11,0,0,1,.1-.29,1.32,1.32,0,0,1,.16-.25A.91.91,0,0,1,293.59,276.28Zm.19,1.16a.31.31,0,0,0,0-.11V277a.89.89,0,0,0-.05-.27s-.08,0-.15,0a.4.4,0,0,0-.15.17.72.72,0,0,0,0,.22.31.31,0,0,0,0,.11v.3a.89.89,0,0,0,.05.27s.08,0,.15,0a.33.33,0,0,0,.15-.16A.78.78,0,0,0,293.78,277.44Z" style="fill:#599D4C"/>
        <g style="opacity:0.4">
          <path d="M287.34,279.21a.15.15,0,0,1,0-.1.28.28,0,0,1,0-.12l.79-1.43.06-.1.07-.07.29-.16a0,0,0,0,1,.06,0,.13.13,0,0,1,0,.09V281a.5.5,0,0,1,0,.12.19.19,0,0,1-.07.08l-.3.18a.06.06,0,0,1-.07,0,.12.12,0,0,1,0-.09v-2.78l-.52.92a.19.19,0,0,1-.07.08s-.05,0-.07,0Z" style="fill:#fff"/>
          <path d="M291.1,277.24v1a4.46,4.46,0,0,1-.07.65,2.28,2.28,0,0,1-.17.58,1.66,1.66,0,0,1-.3.49,1.52,1.52,0,0,1-.45.38,1,1,0,0,1-.45.15.42.42,0,0,1-.3-.15.94.94,0,0,1-.17-.39,3.22,3.22,0,0,1-.06-.57c0-.14,0-.3,0-.48s0-.35,0-.49a3.42,3.42,0,0,1,.06-.65,2.7,2.7,0,0,1,.17-.59,1.63,1.63,0,0,1,.3-.51,1.52,1.52,0,0,1,.45-.38.85.85,0,0,1,.45-.14.36.36,0,0,1,.3.14.83.83,0,0,1,.17.39A3.17,3.17,0,0,1,291.1,277.24Zm-1.48,1.83a1,1,0,0,0,.13.55c.07.11.19.11.36,0a.83.83,0,0,0,.37-.43,2.26,2.26,0,0,0,.12-.7c0-.15,0-.3,0-.48s0-.33,0-.47a1.12,1.12,0,0,0-.12-.55c-.08-.11-.2-.11-.37,0a.77.77,0,0,0-.36.43,2,2,0,0,0-.13.7c0,.15,0,.3,0,.48S289.62,278.93,289.62,279.07Z" style="fill:#fff"/>
          <path d="M292,275.22a.43.43,0,0,1,.24-.08.29.29,0,0,1,.16.07.38.38,0,0,1,.11.16.86.86,0,0,1,0,.24c0,.09,0,.19,0,.3s0,.22,0,.32,0,.18,0,.28a1.45,1.45,0,0,1-.11.29,1.32,1.32,0,0,1-.16.25,1.16,1.16,0,0,1-.24.2.46.46,0,0,1-.23.07.25.25,0,0,1-.17-.06.4.4,0,0,1-.1-.17.79.79,0,0,1,0-.23,3,3,0,0,1,0-.31c0-.11,0-.21,0-.32a1.44,1.44,0,0,1,.14-.56,1.45,1.45,0,0,1,.17-.26A.83.83,0,0,1,292,275.22Zm.2,1.16v-.52a.38.38,0,0,0-.05-.17s-.08,0-.15,0a.31.31,0,0,0-.14.16.79.79,0,0,0-.05.22.49.49,0,0,1,0,.11v.31a.46.46,0,0,1,0,.1.29.29,0,0,0,.05.17s.07,0,.14,0a.33.33,0,0,0,.15-.16A.79.79,0,0,0,292.2,276.38Zm1.27-1.88.06-.11a.16.16,0,0,1,.07-.07l.22-.13h.07a.1.1,0,0,1,0,.07v0s0,0,0,0L292.09,279l0,.1-.08.08-.22.12a.06.06,0,0,1-.07,0,.1.1,0,0,1,0-.07v0s0,0,0,0Zm.12,1.78a.4.4,0,0,1,.23-.07.24.24,0,0,1,.17.06.32.32,0,0,1,.1.17.78.78,0,0,1,.05.23v.62a1.6,1.6,0,0,1-.05.29,1,1,0,0,1-.1.28.85.85,0,0,1-.17.25.74.74,0,0,1-.23.2.4.4,0,0,1-.23.07.24.24,0,0,1-.17-.06.29.29,0,0,1-.1-.16.86.86,0,0,1,0-.23v-.63a1.51,1.51,0,0,1,0-.28,1.11,1.11,0,0,1,.1-.29,1.32,1.32,0,0,1,.16-.25A.91.91,0,0,1,293.59,276.28Zm.19,1.16a.31.31,0,0,0,0-.11V277a.89.89,0,0,0-.05-.27s-.08,0-.15,0a.4.4,0,0,0-.15.17.72.72,0,0,0,0,.22.31.31,0,0,0,0,.11v.3a.89.89,0,0,0,.05.27s.08,0,.15,0a.33.33,0,0,0,.15-.16A.78.78,0,0,0,293.78,277.44Z" style="fill:#fff"/>
        </g>
        <path d="M268.05,293.11s0,0,0-.08v-.8a1,1,0,0,1,.16-.45c.1-.12.17-.12.17,0v.67l.27-.16c.09,0,.11.06.06.23a.72.72,0,0,1-.22.39l-.36.2S268.06,293.13,268.05,293.11Zm1.23-.71s0-.11,0-.22a.72.72,0,0,1,.23-.39l.87-.5c.08-.05.11,0,.06.22a.79.79,0,0,1-.23.39l-.87.5S269.29,292.42,269.28,292.4ZM268.05,291s0,0,0-.08v-1.34a.88.88,0,0,1,.16-.45c.1-.13.17-.13.17,0v1.34a.87.87,0,0,1-.17.45C268.13,291,268.08,291,268.05,291Zm3,.43s0-.11,0-.23a.79.79,0,0,1,.23-.39l.87-.5c.09,0,.11.05.07.22a.79.79,0,0,1-.23.39l-.88.5A0,0,0,0,1,271,291.4Zm-3-3.11s0-.05,0-.09v-1.34a.91.91,0,0,1,.16-.45c.1-.13.17-.13.17,0v1.34a.84.84,0,0,1-.17.45C268.13,288.29,268.08,288.31,268.05,288.29Zm4.72,2.1s0-.11,0-.23a.72.72,0,0,1,.23-.39l.87-.5c.08,0,.11.05.06.22a.74.74,0,0,1-.23.39l-.87.51Zm1.74-1s0-.11,0-.22a.74.74,0,0,1,.23-.39l.87-.51c.09-.05.11.06.07.22a.83.83,0,0,1-.23.4l-.88.5S274.53,289.39,274.51,289.38Zm1.75-1s0-.11,0-.22a.68.68,0,0,1,.23-.39l.87-.51c.08-.05.11.05.06.23a.72.72,0,0,1-.23.39l-.87.5S276.27,288.39,276.26,288.37Z" style="fill:#f0f0f0"/>
        <path d="M278,287.36a.3.3,0,0,1,0-.22.79.79,0,0,1,.23-.39l.88-.5c.08-.05.11.05.06.22a.79.79,0,0,1-.23.39l-.87.5S278,287.38,278,287.36Z" style="fill:#f0f0f0"/>
        <path d="M279.75,286.36s0-.11,0-.23a.79.79,0,0,1,.23-.39l.87-.5c.08-.05.11.05.06.22a.72.72,0,0,1-.23.39l-.87.5S279.76,286.37,279.75,286.36Z" style="fill:#f0f0f0"/>
        <path d="M281.5,285.35s0-.11,0-.23a.72.72,0,0,1,.22-.39l.88-.5c.08-.05.11,0,.06.22a.79.79,0,0,1-.23.39l-.87.51Z" style="fill:#f0f0f0"/>
        <path d="M283.24,284.34s0-.11,0-.23a.84.84,0,0,1,.23-.39l.87-.5c.08-.05.11,0,.06.22a.68.68,0,0,1-.22.39l-.88.51A.06.06,0,0,1,283.24,284.34Z" style="fill:#f0f0f0"/>
        <path d="M237.74,280l10-5.87a1.64,1.64,0,0,0,.7-1.3c0-.5-.31-.72-.69-.5l-10.12,5.78a1.6,1.6,0,0,0-.65,1.35C237,280,237.35,280.21,237.74,280Z" style="fill:#f0f0f0"/>
        <path d="M238.43,309.22l10-5.88a1.61,1.61,0,0,0,.7-1.3c0-.49-.31-.71-.69-.49l-10.12,5.78a1.6,1.6,0,0,0-.65,1.35C237.71,309.2,238,309.44,238.43,309.22Z" style="fill:#f0f0f0"/>
        <path d="M285.77,287.49l10-5.88a1.64,1.64,0,0,0,.7-1.3c0-.49-.31-.71-.69-.49l-10.12,5.78A1.58,1.58,0,0,0,285,287C285.05,287.47,285.38,287.71,285.77,287.49Z" style="fill:#f0f0f0"/>
        <path d="M288.82,253l10-5.87a1.67,1.67,0,0,0,.7-1.3c0-.49-.31-.71-.69-.5l-10.12,5.78a1.58,1.58,0,0,0-.65,1.35C288.1,253,288.43,253.2,288.82,253Z" style="fill:#f0f0f0"/>
        <path d="M253,241.65a4.64,4.64,0,0,1,2.17-3.59l24.1-13.92c1.2-.69,2.17-.2,2.17,1.1a4.64,4.64,0,0,1-2.17,3.59l-24.1,13.92C254,243.44,253,243,253,241.65Z" style="fill:#599D4C"/>
      </g>
    </g>
  </g>
  <g id="freepik--chart-2--inject-18" transform="matrix(-1, 0, 0, 1, 424.70575, -16.456074)">
    <g id="freepik--window-chart--inject-18">
      <g id="freepik--window--inject-18">
        <path d="M207.39,253.4a3.31,3.31,0,0,0-3.44.28L73.19,329a10.49,10.49,0,0,0-4.73,8.21v6.82h0V409.5a5.32,5.32,0,0,0,0,.69A5,5,0,0,0,71,413.86l5,2.89.24.14a3.23,3.23,0,0,1-1.7-2.85V350.25h0v-9.57a10.52,10.52,0,0,1,4.74-8.22L210,257.11a3.46,3.46,0,0,1,3.19-.41C212.18,256.17,208.25,253.92,207.39,253.4Z" style="fill:#263238"/>
        <path d="M214.72,259.25a2,2,0,0,0-.08-.43s0-.06,0-.09a2.13,2.13,0,0,0-.11-.42,2.43,2.43,0,0,0-.28-.61.82.82,0,0,0-.16-.25.79.79,0,0,0-.14-.17,1.3,1.3,0,0,0-.31-.31l0,0a1.91,1.91,0,0,0-.41-.24,3.46,3.46,0,0,0-3.19.41L79.26,332.46a10.52,10.52,0,0,0-4.74,8.22V414h0a3.25,3.25,0,0,0,4.87,2.81L210,341.49a10.49,10.49,0,0,0,4.75-8.22V259.85A5.74,5.74,0,0,0,214.72,259.25Z" style="fill:#455a64"/>
        <path d="M210,257.11,79.27,332.46A9.69,9.69,0,0,0,75.93,336l-6-3.49A9.49,9.49,0,0,1,73.2,329L204,253.68a3.33,3.33,0,0,1,3.44-.28c.85.52,4.79,2.76,5.79,3.29A3.45,3.45,0,0,0,210,257.11Z" style="fill:#37474f"/>
      </g>
      <g id="freepik--chart--inject-18">
        <path d="M95.08,336.71a.33.33,0,0,1-.28-.16.34.34,0,0,1,.12-.44l109.9-63.45a.31.31,0,0,1,.44.12.32.32,0,0,1-.11.44L95.25,336.67A.35.35,0,0,1,95.08,336.71Z" style="fill:#fff;opacity:0.5"/>
        <path d="M95.08,348.8a.32.32,0,0,1-.16-.6l109.9-63.46a.33.33,0,0,1,.44.12.32.32,0,0,1-.11.44L95.25,348.76A.53.53,0,0,1,95.08,348.8Z" style="fill:#fff;opacity:0.5"/>
        <path d="M95.08,360.88a.31.31,0,0,1-.28-.16.34.34,0,0,1,.12-.44l109.9-63.45a.33.33,0,1,1,.33.56L95.25,360.84A.35.35,0,0,1,95.08,360.88Z" style="fill:#fff;opacity:0.5"/>
        <path d="M95.08,373a.32.32,0,0,1-.16-.6l109.9-63.45a.33.33,0,0,1,.45.11.35.35,0,0,1-.12.45L95.25,372.93A.35.35,0,0,1,95.08,373Z" style="fill:#fff;opacity:0.5"/>
        <path d="M95.08,385.06a.32.32,0,0,1-.28-.17.34.34,0,0,1,.12-.44L204.82,321a.35.35,0,0,1,.45.12.33.33,0,0,1-.12.44L95.25,385A.37.37,0,0,1,95.08,385.06Z" style="fill:#fafafa"/>
        <path d="M99.07,368.16a3.09,3.09,0,0,1,1.4-2.42l2.44-1.41c.77-.45,1.4-.09,1.4.8v13.93l-5.24,3Z" style="fill:#599D4C"/>
        <path d="M106.63,350.88a3.09,3.09,0,0,1,1.39-2.42l2.44-1.41c.77-.44,1.4-.08,1.4.81V374.7l-5.23,3Z" style="fill:#599D4C"/>
        <path d="M114.18,356.84a3.09,3.09,0,0,1,1.39-2.42L118,353c.77-.44,1.39-.08,1.39.81v16.52l-5.23,3Z" style="fill:#599D4C"/>
        <path d="M114.18,356.84a3.09,3.09,0,0,1,1.39-2.42L118,353c.77-.44,1.39-.08,1.39.81v16.52l-5.23,3Z" style="opacity:0.2"/>
        <path d="M106.63,350.88a3.09,3.09,0,0,1,1.39-2.42l2.44-1.41c.77-.44,1.4-.08,1.4.81V374.7l-5.23,3Z" style="fill:#fff;opacity:0.7000000000000001"/>
        <path d="M126.09,344.54a3.09,3.09,0,0,1,1.39-2.42l2.44-1.41c.77-.44,1.4-.08,1.4.8v21.95l-5.23,3Z" style="fill:#599D4C"/>
        <path d="M133.64,337.16a3.09,3.09,0,0,1,1.39-2.42l2.45-1.41c.77-.44,1.39-.08,1.39.81v25l-5.23,3Z" style="fill:#599D4C"/>
        <path d="M141.19,316.3a3.09,3.09,0,0,1,1.39-2.42l2.45-1.41c.77-.44,1.39-.08,1.39.81v41.46l-5.23,3Z" style="fill:#599D4C"/>
        <path d="M141.19,316.3a3.09,3.09,0,0,1,1.39-2.42l2.45-1.41c.77-.44,1.39-.08,1.39.81v41.46l-5.23,3Z" style="opacity:0.2"/>
        <path d="M133.64,337.16a3.09,3.09,0,0,1,1.39-2.42l2.45-1.41c.77-.44,1.39-.08,1.39.81v25l-5.23,3Z" style="fill:#fff;opacity:0.7000000000000001"/>
        <path d="M153.1,347.62a3.08,3.08,0,0,1,1.39-2.41l2.45-1.41c.77-.45,1.39-.09,1.39.8v3.26l-5.23,3Z" style="fill:#599D4C"/>
        <path d="M160.65,317.32a3.06,3.06,0,0,1,1.39-2.41l2.45-1.41c.77-.45,1.39-.09,1.39.8v29.2l-5.23,3Z" style="fill:#599D4C"/>
        <path d="M168.2,320.2a3.08,3.08,0,0,1,1.39-2.42l2.45-1.41c.77-.45,1.39-.09,1.39.8v22l-5.23,3Z" style="fill:#599D4C"/>
        <path d="M168.2,320.2a3.08,3.08,0,0,1,1.39-2.42l2.45-1.41c.77-.45,1.39-.09,1.39.8v22l-5.23,3Z" style="opacity:0.2"/>
        <path d="M160.65,317.32a3.06,3.06,0,0,1,1.39-2.41l2.45-1.41c.77-.45,1.39-.09,1.39.8v29.2l-5.23,3Z" style="fill:#fff;opacity:0.7000000000000001"/>
        <path d="M180.11,321.37A3.09,3.09,0,0,1,181.5,319l2.45-1.41c.77-.44,1.39-.08,1.39.81v13.92l-5.23,3Z" style="fill:#599D4C"/>
        <path d="M187.66,296.52a3.09,3.09,0,0,1,1.39-2.42l2.45-1.41c.77-.44,1.39-.08,1.39.81v34.41l-5.23,3Z" style="fill:#599D4C"/>
        <path d="M195.21,310.06a3.09,3.09,0,0,1,1.4-2.42l2.44-1.41c.77-.45,1.39-.09,1.39.8v16.52l-5.23,3Z" style="fill:#599D4C"/>
        <path d="M195.21,310.06a3.09,3.09,0,0,1,1.4-2.42l2.44-1.41c.77-.45,1.39-.09,1.39.8v16.52l-5.23,3Z" style="opacity:0.2"/>
        <path d="M187.66,296.52a3.09,3.09,0,0,1,1.39-2.42l2.45-1.41c.77-.44,1.39-.08,1.39.81v34.41l-5.23,3Z" style="fill:#fff;opacity:0.7000000000000001"/>
        <path d="M81.1,391.49a2.74,2.74,0,0,1,1.4-2l7.68-4.43c.77-.45,1.39-.28,1.39.36a2.72,2.72,0,0,1-1.39,2l-7.68,4.43C81.73,392.3,81.1,392.13,81.1,391.49Z" style="fill:#fafafa"/>
        <path d="M81.1,368.49a2.74,2.74,0,0,1,1.4-2l7.68-4.43c.77-.45,1.39-.28,1.39.36a2.72,2.72,0,0,1-1.39,2l-7.68,4.43C81.73,369.3,81.1,369.13,81.1,368.49Z" style="fill:#fafafa"/>
        <path d="M81.1,345.55a2.76,2.76,0,0,1,1.4-2l7.68-4.43c.77-.44,1.39-.28,1.39.37a2.72,2.72,0,0,1-1.39,2l-7.68,4.44C81.73,346.36,81.1,346.2,81.1,345.55Z" style="fill:#fafafa"/>
        <path d="M103.76,391.19a2.72,2.72,0,0,1,1.39-2l16.25-9.38c.77-.45,1.4-.28,1.4.36a2.74,2.74,0,0,1-1.4,2l-16.25,9.38C104.38,392,103.76,391.84,103.76,391.19Z" style="fill:#fafafa"/>
        <path d="M99.7,394.79V392.1c0-.55-.39-.77-.87-.5L96.5,393a1.89,1.89,0,0,0-.87,1.5v2.69c0,.55.39.77.87.5l2.33-1.35A1.91,1.91,0,0,0,99.7,394.79Z" style="fill:#599D4C"/>
        <path d="M144.32,367.79a2.72,2.72,0,0,1,1.39-2L162,356.43c.77-.45,1.39-.28,1.39.36a2.72,2.72,0,0,1-1.39,2l-16.25,9.38C144.94,368.6,144.32,368.43,144.32,367.79Z" style="fill:#fafafa"/>
        <path d="M140.25,371.38v-2.69c0-.55-.38-.77-.86-.5l-2.33,1.35a1.89,1.89,0,0,0-.87,1.5v2.69c0,.55.39.77.87.5l2.33-1.35A1.9,1.9,0,0,0,140.25,371.38Z" style="fill:#599D4C"/>
        <path d="M140.25,371.38v-2.69c0-.55-.38-.77-.86-.5l-2.33,1.35a1.89,1.89,0,0,0-.87,1.5v2.69c0,.55.39.77.87.5l2.33-1.35A1.9,1.9,0,0,0,140.25,371.38Z" style="fill:#fff;opacity:0.7000000000000001"/>
        <path d="M184.87,344.38a2.74,2.74,0,0,1,1.4-2L202.52,333c.77-.45,1.39-.28,1.39.36a2.72,2.72,0,0,1-1.39,2l-16.25,9.38C185.5,345.19,184.87,345,184.87,344.38Z" style="fill:#fafafa"/>
        <path d="M180.81,348v-2.69c0-.55-.39-.77-.86-.5l-2.33,1.35a1.89,1.89,0,0,0-.87,1.5v2.69c0,.55.39.77.87.5l2.33-1.35A1.92,1.92,0,0,0,180.81,348Z" style="fill:#599D4C"/>
        <path d="M180.81,348v-2.69c0-.55-.39-.77-.86-.5l-2.33,1.35a1.89,1.89,0,0,0-.87,1.5v2.69c0,.55.39.77.87.5l2.33-1.35A1.92,1.92,0,0,0,180.81,348Z" style="opacity:0.2"/>
      </g>
    </g>
  </g>
  <g id="freepik--chart-1--inject-18" transform="matrix(-1, 0, 0, 1, 424.70575, -16.456074)">
    <g id="freepik--window-chart--inject-18">
      <g id="freepik--window--inject-18">
        <path d="M296.12,23.88a3.31,3.31,0,0,0-3.44.28L73.19,150.8a10.47,10.47,0,0,0-4.73,8.2v6.83h0V306.31a5.32,5.32,0,0,0,0,.69A5,5,0,0,0,71,310.67l5,2.89.24.14a3.23,3.23,0,0,1-1.7-2.85V172h0v-9.57a10.52,10.52,0,0,1,4.74-8.22L298.74,27.59a3.46,3.46,0,0,1,3.19-.41C300.91,26.65,297,24.4,296.12,23.88Z" style="fill:#263238"/>
        <path d="M303.45,29.73a1.56,1.56,0,0,0-.08-.43s0-.06,0-.09a2.13,2.13,0,0,0-.11-.42,2.25,2.25,0,0,0-.28-.61,1,1,0,0,0-.16-.25.75.75,0,0,0-.14-.17,1.14,1.14,0,0,0-.31-.31l0,0a2,2,0,0,0-.4-.24,3.46,3.46,0,0,0-3.19.41L79.26,154.22a10.52,10.52,0,0,0-4.74,8.22V310.85h0a3.25,3.25,0,0,0,4.87,2.81L298.74,187a10.48,10.48,0,0,0,4.74-8.21V30.33A5.74,5.74,0,0,0,303.45,29.73Z" style="fill:#455a64"/>
        <path d="M298.73,27.59,79.27,154.23a9.74,9.74,0,0,0-3.34,3.51l-6-3.49a9.49,9.49,0,0,1,3.3-3.46L292.68,24.16a3.33,3.33,0,0,1,3.44-.28c.85.52,4.79,2.76,5.79,3.29A3.45,3.45,0,0,0,298.73,27.59Z" style="fill:#37474f"/>
      </g>
      <g id="freepik--chart--inject-18">
        <path d="M91.57,288.36a.5.5,0,0,1-.25-.93l195-112.58a.5.5,0,0,1,.5.87l-195,112.57A.45.45,0,0,1,91.57,288.36Z" style="fill:#fafafa"/>
        <path d="M91.57,290.8a.5.5,0,0,1-.5-.5v-4.7a.5.5,0,0,1,1,0v4.7A.5.5,0,0,1,91.57,290.8Z" style="fill:#fafafa"/>
        <path d="M124.07,271.94a.5.5,0,0,1-.5-.5v-4.69a.5.5,0,0,1,.5-.5.5.5,0,0,1,.5.5v4.69A.5.5,0,0,1,124.07,271.94Z" style="fill:#fafafa"/>
        <path d="M156.56,253.09a.51.51,0,0,1-.5-.5V247.9a.5.5,0,0,1,.5-.5.5.5,0,0,1,.5.5v4.69A.5.5,0,0,1,156.56,253.09Z" style="fill:#fafafa"/>
        <path d="M189.06,234.23a.5.5,0,0,1-.5-.5V229a.5.5,0,0,1,1,0v4.69A.5.5,0,0,1,189.06,234.23Z" style="fill:#fafafa"/>
        <path d="M221.56,215.38a.5.5,0,0,1-.5-.5v-4.69a.5.5,0,0,1,.5-.5.5.5,0,0,1,.5.5v4.69A.51.51,0,0,1,221.56,215.38Z" style="fill:#fafafa"/>
        <path d="M254.05,196.52a.5.5,0,0,1-.5-.5v-4.69a.51.51,0,0,1,.5-.5.5.5,0,0,1,.5.5V196A.5.5,0,0,1,254.05,196.52Z" style="fill:#fafafa"/>
        <path d="M286.55,177.67a.5.5,0,0,1-.5-.5v-4.69a.5.5,0,1,1,1,0v4.69A.5.5,0,0,1,286.55,177.67Z" style="fill:#fafafa"/>
        <path d="M91.57,241c16.25-9.38,20.31,11.73,32.5,4.69s4.06-49.25,24.37-61,16.25,28.14,36.56,16.41,12.18-86.77,32.49-98.49,16.26,47.47,36.56,35.46,8.13-70.64,32.5-84.71V165.91l-195,112.57Z" style="fill:#599D4C"/>
        <path d="M91.57,241c16.25-9.38,20.31,11.73,32.5,4.69s4.06-49.25,24.37-61,16.25,28.14,36.56,16.41,12.18-86.77,32.49-98.49,16.26,47.47,36.56,35.46,8.13-70.64,32.5-84.71V165.91l-195,112.57Z" style="opacity:0.6"/>
        <path d="M286.55,74.56v91.35l-195,112.57V264.41l14.34-14.49c.29.72,1,.92,1.91.42a4.49,4.49,0,0,0,2-3.52,1.44,1.44,0,0,0-.51-1.25l13.2-20.95a1.35,1.35,0,0,0,1.52-.08,4.26,4.26,0,0,0,1.62-1.87l13,3.75a3.82,3.82,0,0,0-.41,1.64c0,1.29.91,1.82,2,1.17a4.49,4.49,0,0,0,2-3.52,1.92,1.92,0,0,0-.21-.92l12.61-14.57c.32.59,1,.73,1.82.26a4.47,4.47,0,0,0,2-3.51,1.53,1.53,0,0,0-.42-1.17l13-18.79a1.3,1.3,0,0,0,1.62,0,4.51,4.51,0,0,0,2-3.52,2.2,2.2,0,0,0-.06-.53l12.31-10.67c.22.9,1,1.19,2,.65a4.51,4.51,0,0,0,2-3.52,1.81,1.81,0,0,0-.22-.92l12.62-14.58c.32.58,1,.71,1.81.25a4.11,4.11,0,0,0,1.44-1.51l13.37,7.72a4.22,4.22,0,0,0-.59,2c0,1.3.91,1.82,2,1.18a4.51,4.51,0,0,0,2-3.52,2.2,2.2,0,0,0-.06-.53l12.31-10.67c.22.9,1,1.19,2,.64a4.47,4.47,0,0,0,2-3.51,1.31,1.31,0,0,0-.77-1.38h0l13.72-27.71a1.54,1.54,0,0,0,1.27-.22,4.47,4.47,0,0,0,2-3.51h0l12.18-7c0,1.29.91,1.82,2,1.17a4.49,4.49,0,0,0,2-3.52,1.34,1.34,0,0,0-.76-1.39l13.66-27.61A1.5,1.5,0,0,0,286.55,74.56Z" style="fill:#599D4C"/>
        <path d="M286.55,74.56v91.35l-195,112.57V264.41l14.34-14.49c.29.72,1,.92,1.91.42a4.49,4.49,0,0,0,2-3.52,1.44,1.44,0,0,0-.51-1.25l13.2-20.95a1.35,1.35,0,0,0,1.52-.08,4.26,4.26,0,0,0,1.62-1.87l13,3.75a3.82,3.82,0,0,0-.41,1.64c0,1.29.91,1.82,2,1.17a4.49,4.49,0,0,0,2-3.52,1.92,1.92,0,0,0-.21-.92l12.61-14.57c.32.59,1,.73,1.82.26a4.47,4.47,0,0,0,2-3.51,1.53,1.53,0,0,0-.42-1.17l13-18.79a1.3,1.3,0,0,0,1.62,0,4.51,4.51,0,0,0,2-3.52,2.2,2.2,0,0,0-.06-.53l12.31-10.67c.22.9,1,1.19,2,.65a4.51,4.51,0,0,0,2-3.52,1.81,1.81,0,0,0-.22-.92l12.62-14.58c.32.58,1,.71,1.81.25a4.11,4.11,0,0,0,1.44-1.51l13.37,7.72a4.22,4.22,0,0,0-.59,2c0,1.3.91,1.82,2,1.18a4.51,4.51,0,0,0,2-3.52,2.2,2.2,0,0,0-.06-.53l12.31-10.67c.22.9,1,1.19,2,.64a4.47,4.47,0,0,0,2-3.51,1.31,1.31,0,0,0-.77-1.38h0l13.72-27.71a1.54,1.54,0,0,0,1.27-.22,4.47,4.47,0,0,0,2-3.51h0l12.18-7c0,1.29.91,1.82,2,1.17a4.49,4.49,0,0,0,2-3.52,1.34,1.34,0,0,0-.76-1.39l13.66-27.61A1.5,1.5,0,0,0,286.55,74.56Z" style="opacity:0.3"/>
        <path d="M91.57,264.91a.49.49,0,0,1-.35-.15.5.5,0,0,1,0-.71l14.34-14.49a.5.5,0,0,1,.71,0,.5.5,0,0,1,0,.71l-14.34,14.5A.51.51,0,0,1,91.57,264.91Z" style="fill:#fafafa"/>
        <path d="M109.34,246.07a.42.42,0,0,1-.26-.08.49.49,0,0,1-.16-.69l13.2-21a.49.49,0,0,1,.69-.16.51.51,0,0,1,.16.69l-13.2,21A.51.51,0,0,1,109.34,246.07Z" style="fill:#fafafa"/>
        <path d="M138.69,226.91a.36.36,0,0,1-.14,0l-13-3.75a.5.5,0,0,1,.28-1l13,3.75a.5.5,0,0,1,.34.62A.49.49,0,0,1,138.69,226.91Z" style="fill:#fafafa"/>
        <path d="M142.12,225.3a.45.45,0,0,1-.32-.13.49.49,0,0,1-.06-.7l12.63-14.58a.49.49,0,0,1,.7,0,.51.51,0,0,1,.05.71L142.5,225.12A.49.49,0,0,1,142.12,225.3Z" style="fill:#fafafa"/>
        <path d="M158.19,206.28a.52.52,0,0,1-.29-.09.51.51,0,0,1-.12-.7l13-18.76a.49.49,0,0,1,.69-.13.5.5,0,0,1,.13.7l-13,18.76A.5.5,0,0,1,158.19,206.28Z" style="fill:#fafafa"/>
        <path d="M174.78,183.46a.52.52,0,0,1-.38-.17.51.51,0,0,1,0-.71l12.32-10.66a.49.49,0,0,1,.7.05.51.51,0,0,1-.05.71l-12.31,10.66A.52.52,0,0,1,174.78,183.46Z" style="fill:#fafafa"/>
        <path d="M190.87,169a.49.49,0,0,1-.37-.82l12.62-14.58a.5.5,0,0,1,.76.65l-12.63,14.58A.52.52,0,0,1,190.87,169Z" style="fill:#fafafa"/>
        <path d="M220.12,160.89a.55.55,0,0,1-.25-.07l-13.38-7.72a.51.51,0,0,1-.18-.69.49.49,0,0,1,.68-.18L220.37,160a.51.51,0,0,1,.18.69A.5.5,0,0,1,220.12,160.89Z" style="fill:#fafafa"/>
        <path d="M223.53,160a.52.52,0,0,1-.38-.17.51.51,0,0,1,0-.71l12.3-10.65a.5.5,0,1,1,.66.75l-12.31,10.66A.49.49,0,0,1,223.53,160Z" style="fill:#fafafa"/>
        <path d="M239.07,145.09a.43.43,0,0,1-.22-.06.5.5,0,0,1-.23-.67l13.69-27.65a.49.49,0,0,1,.67-.22.5.5,0,0,1,.22.67l-13.68,27.65A.52.52,0,0,1,239.07,145.09Z" style="fill:#fafafa"/>
        <path d="M256.08,113.64a.5.5,0,0,1-.25-.93l12.19-7a.49.49,0,0,1,.68.18.51.51,0,0,1-.18.69l-12.19,7A.45.45,0,0,1,256.08,113.64Z" style="fill:#fafafa"/>
        <path d="M271.57,102.87a.48.48,0,0,1-.23-.05.5.5,0,0,1-.22-.67l13.67-27.62a.5.5,0,1,1,.89.44L272,102.59A.48.48,0,0,1,271.57,102.87Z" style="fill:#fafafa"/>
        <path d="M106.91,251.11a1.51,1.51,0,0,1-.78-.2,1.92,1.92,0,0,1-.84-1.75,5,5,0,0,1,2.28-3.95h0a1.73,1.73,0,0,1,2.78,1.61,5,5,0,0,1-2.28,4A2.33,2.33,0,0,1,106.91,251.11Zm1.16-5a4,4,0,0,0-1.78,3.08c0,.44.12.76.34.88a1,1,0,0,0,.94-.14,4,4,0,0,0,1.78-3.08.76.76,0,0,0-1.28-.74Z" style="fill:#fafafa"/>
        <path d="M123.16,225.32a1.52,1.52,0,0,1-.78-.21,1.9,1.9,0,0,1-.84-1.75,5,5,0,0,1,2.28-4h0A1.73,1.73,0,0,1,126.6,221a5,5,0,0,1-2.28,3.95A2.38,2.38,0,0,1,123.16,225.32Zm1.16-5a4,4,0,0,0-1.78,3.08,1,1,0,0,0,.34.89,1,1,0,0,0,.94-.15A4,4,0,0,0,125.6,221a1,1,0,0,0-.35-.88,1,1,0,0,0-.93.14Z" style="fill:#fafafa"/>
        <path d="M139.41,230a1.52,1.52,0,0,1-.78-.21,1.88,1.88,0,0,1-.85-1.75,5,5,0,0,1,2.29-4,1.73,1.73,0,0,1,2.78,1.61,5,5,0,0,1-2.28,3.95A2.38,2.38,0,0,1,139.41,230Zm1.81-5.25a1.33,1.33,0,0,0-.65.21,4,4,0,0,0-1.79,3.08,1,1,0,0,0,.35.89,1,1,0,0,0,.94-.14,4,4,0,0,0,1.78-3.09,1,1,0,0,0-.35-.88A.51.51,0,0,0,141.22,224.76Z" style="fill:#fafafa"/>
        <path d="M155.66,211.26a1.59,1.59,0,0,1-.78-.2,1.9,1.9,0,0,1-.85-1.75,5,5,0,0,1,2.28-3.95h0a1.73,1.73,0,0,1,2.78,1.6,5,5,0,0,1-2.28,3.95A2.34,2.34,0,0,1,155.66,211.26Zm1.15-5a4,4,0,0,0-1.78,3.09.76.76,0,0,0,1.28.74,4,4,0,0,0,1.78-3.09,1,1,0,0,0-.34-.88,1,1,0,0,0-.94.14Z" style="fill:#fafafa"/>
        <path d="M171.9,187.79a1.55,1.55,0,0,1-.77-.2,1.9,1.9,0,0,1-.85-1.75,5,5,0,0,1,2.28-4h0a1.73,1.73,0,0,1,2.78,1.61,5,5,0,0,1-2.28,3.95A2.33,2.33,0,0,1,171.9,187.79Zm1.16-5a4,4,0,0,0-1.78,3.08,1,1,0,0,0,.35.88,1,1,0,0,0,.93-.14,4,4,0,0,0,1.78-3.08,1,1,0,0,0-.34-.89,1,1,0,0,0-.94.15Z" style="fill:#fafafa"/>
        <path d="M188.15,173.72a1.62,1.62,0,0,1-.78-.2,1.92,1.92,0,0,1-.84-1.75,5,5,0,0,1,2.28-4h0a1.73,1.73,0,0,1,2.78,1.6,5,5,0,0,1-2.28,4A2.33,2.33,0,0,1,188.15,173.72Zm1.16-5a4,4,0,0,0-1.78,3.09,1,1,0,0,0,.34.88,1,1,0,0,0,.94-.14,4,4,0,0,0,1.78-3.09,1,1,0,0,0-.34-.88,1,1,0,0,0-.94.14Z" style="fill:#fafafa"/>
        <path d="M220.65,164.34a1.62,1.62,0,0,1-.78-.2,1.9,1.9,0,0,1-.84-1.75,5,5,0,0,1,2.28-3.95,1.73,1.73,0,0,1,2.78,1.6,5,5,0,0,1-2.28,4A2.38,2.38,0,0,1,220.65,164.34Zm1.81-5.25a1.44,1.44,0,0,0-.65.21,4,4,0,0,0-1.78,3.09,1,1,0,0,0,.34.88,1,1,0,0,0,.94-.14,4,4,0,0,0,1.78-3.09,1,1,0,0,0-.35-.88A.61.61,0,0,0,222.46,159.09Z" style="fill:#fafafa"/>
        <path d="M236.9,150.27a1.5,1.5,0,0,1-.78-.21,1.88,1.88,0,0,1-.85-1.74,5,5,0,0,1,2.28-3.95h0a1.72,1.72,0,0,1,2.78,1.6,5,5,0,0,1-2.28,3.95A2.31,2.31,0,0,1,236.9,150.27Zm1.15-5a4,4,0,0,0-1.78,3.09.76.76,0,0,0,1.28.74,4,4,0,0,0,1.78-3.09,1,1,0,0,0-.34-.88,1,1,0,0,0-.94.14Z" style="fill:#fafafa"/>
        <path d="M269.39,108.05a1.51,1.51,0,0,1-.78-.2,1.9,1.9,0,0,1-.84-1.75,5,5,0,0,1,2.28-3.95h0A1.93,1.93,0,0,1,272,102a1.91,1.91,0,0,1,.84,1.75,5,5,0,0,1-2.28,3.95A2.33,2.33,0,0,1,269.39,108.05Zm1.16-5a4,4,0,0,0-1.78,3.08c0,.44.12.76.34.88a1,1,0,0,0,.94-.14,4,4,0,0,0,1.78-3.08,1,1,0,0,0-.34-.88,1,1,0,0,0-.94.14Z" style="fill:#fafafa"/>
        <path d="M253.14,117.44a1.49,1.49,0,0,1-.77-.21,1.88,1.88,0,0,1-.85-1.75,5,5,0,0,1,2.28-4h0a1.73,1.73,0,0,1,2.78,1.61,5,5,0,0,1-2.28,4A2.35,2.35,0,0,1,253.14,117.44Zm1.16-5a4,4,0,0,0-1.78,3.08.76.76,0,0,0,1.28.74,4,4,0,0,0,1.78-3.08.76.76,0,0,0-1.28-.74Z" style="fill:#fafafa"/>
        <path d="M285.64,75.34a1.52,1.52,0,0,1-.78-.21,1.89,1.89,0,0,1-.84-1.74,5,5,0,0,1,2.28-4A1.73,1.73,0,0,1,289.08,71,5,5,0,0,1,286.8,75,2.35,2.35,0,0,1,285.64,75.34Zm1.82-5.25a1.36,1.36,0,0,0-.66.21A4,4,0,0,0,285,73.39a1,1,0,0,0,.34.88,1,1,0,0,0,.94-.14A4,4,0,0,0,288.08,71a1,1,0,0,0-.34-.88A.53.53,0,0,0,287.46,70.09Z" style="fill:#fafafa"/>
        <path d="M204.4,155a1.62,1.62,0,0,1-.78-.2,1.92,1.92,0,0,1-.84-1.75,5,5,0,0,1,2.28-3.95h0a1.72,1.72,0,0,1,2.78,1.6,5,5,0,0,1-2.28,4A2.35,2.35,0,0,1,204.4,155Zm1.81-5.25a1.36,1.36,0,0,0-.65.21h0a4,4,0,0,0-1.78,3.09,1,1,0,0,0,.34.88,1,1,0,0,0,.94-.14,4,4,0,0,0,1.78-3.09,1,1,0,0,0-.35-.88A.51.51,0,0,0,206.21,149.71Zm-.9-.22h0Z" style="fill:#fafafa"/>
        <path d="M119.12,247.62c-3.36,0-6.17-2-9.09-4.1-4.81-3.44-9.78-7-18.21-2.13l-.5-.87c9-5.19,14.46-1.27,19.29,2.19,4.2,3,7.83,5.6,13.21,2.5,5.11-3,6.52-12.47,8.16-23.5,2.13-14.41,4.55-30.75,16.21-37.47,10.59-6.12,14.85,1.26,19,8.39,2,3.41,4,6.93,6.71,8.78,3,2,6.46,1.8,10.89-.76,9.94-5.74,13-27.67,16-48.88,3-21.45,6.13-43.63,16.49-49.62,2.83-1.63,5.41-2,7.68-1.17,5.4,2,8.41,10.78,11.32,19.24,2.82,8.24,5.75,16.76,10.69,18.58,2,.74,4.27.36,6.87-1.18,9.48-5.61,11.74-21.71,14.13-38.75,2.66-18.92,5.41-38.48,18.37-46l.5.87C274.26,61,271.55,80.33,268.92,99c-2.43,17.29-4.72,33.62-14.61,39.47-2.84,1.68-5.44,2.1-7.73,1.26-5.38-2-8.39-10.73-11.29-19.19-2.83-8.25-5.76-16.78-10.72-18.63-2-.75-4.24-.39-6.83,1.1-9.94,5.74-13,27.67-16,48.89-3,21.44-6.13,43.62-16.49,49.61-4.74,2.73-8.65,3-12,.71-2.88-2-5-5.59-7-9.1-4-7-7.87-13.64-17.6-8-11.24,6.49-13.62,22.57-15.73,36.76-1.67,11.28-3.11,21-8.64,24.22A10.25,10.25,0,0,1,119.12,247.62Z" style="fill:#fafafa"/>
        <path d="M218.66,98.37c1.75-1,3.17-.19,3.17,1.83a7,7,0,0,1-3.17,5.49c-1.75,1-3.17.19-3.17-1.83A7,7,0,0,1,218.66,98.37Z" style="fill:#fafafa"/>
        <path d="M152.5,150a.5.5,0,0,1-.25-.93l32.34-18.67,4-11.55a.46.46,0,0,1,.22-.27l16.25-9.38a.5.5,0,0,1,.5.86l-16.09,9.29-4,11.55a.49.49,0,0,1-.22.27l-32.5,18.76A.45.45,0,0,1,152.5,150Z" style="fill:#599D4C"/>
        <path d="M153.41,142a4.65,4.65,0,0,1,2.16-3.59l24.11-13.92c1.19-.69,2.16-.2,2.16,1.1a4.65,4.65,0,0,1-2.16,3.59l-24.11,13.92C154.38,143.74,153.41,143.25,153.41,142Z" style="fill:#599D4C"/>
      </g>
    </g>
  </g>
  <g id="freepik--magnifying-glass--inject-18" transform="matrix(-1, 0, 0, 1, 424.70575, -16.456074)">
    <g id="freepik--Glass--inject-18">
      <path d="M304.42,378.05c0-7-4.62-14-13.87-19.35C272,348,242,348,223.53,358.7c-9.25,5.35-13.88,12.35-13.88,19.35h0V391c0,7,4.63,14,13.88,19.34,18.51,10.68,48.51,10.68,67,0C299.8,405,304.42,398,304.42,391v-12.9Zm-78.6-15.38c8.27-4.77,19.35-7.4,31.22-7.4s22.95,2.63,31.21,7.4c7.48,4.32,11.59,9.78,11.59,15.38s-4.11,11.06-11.59,15.38c-8.26,4.77-19.35,7.39-31.21,7.39s-23-2.62-31.22-7.39c-7.47-4.32-11.58-9.78-11.58-15.38S218.35,367,225.82,362.67Z" style="fill:#599D4C"/>
      <path d="M255.5,405.39v12.88c12.63.23,25.4-2.41,35.05-8,9.25-5.35,13.88-12.36,13.88-19.35v-12.9a11.8,11.8,0,0,0-.07-1.32c.61,7.43-4,15-13.82,20.67C280.9,403,268.13,405.62,255.5,405.39Z" style="opacity:0.05"/>
      <path d="M223.53,397.39c18.51,10.69,48.51,10.69,67,0s18.51-28,0-38.69-48.5-10.68-67,0S205,386.71,223.53,397.39Zm-9.3-19.34c0-5.6,4.12-11.06,11.59-15.38,8.27-4.77,19.35-7.4,31.22-7.4s22.95,2.63,31.21,7.4c7.47,4.32,11.59,9.78,11.59,15.38s-4.12,11.06-11.59,15.38c-8.26,4.77-19.35,7.39-31.21,7.39s-23-2.62-31.22-7.39C218.35,389.11,214.23,383.65,214.23,378.05Z" style="fill:#fff;opacity:0.6000000000000001"/>
      <path d="M214.23,378.05a12.69,12.69,0,0,0,1.85,6.45c1.88-3.25,5.19-6.31,9.74-8.93,8.26-4.77,19.35-7.4,31.22-7.4s22.95,2.63,31.21,7.4c4.55,2.62,7.86,5.68,9.75,8.93a12.78,12.78,0,0,0,1.84-6.45c0-5.6-4.11-11.06-11.59-15.38-8.26-4.77-19.35-7.4-31.21-7.4s-23,2.63-31.22,7.4C218.35,367,214.23,372.45,214.23,378.05Z" style="fill:#599D4C"/>
      <path d="M225.82,368.51c8.27-4.77,19.35-7.4,31.22-7.4s22.95,2.63,31.21,7.4c6.17,3.56,10,7.9,11.21,12.46-1.17,4.55-5,8.9-11.21,12.46-8.26,4.77-19.35,7.39-31.21,7.39s-23-2.62-31.22-7.39c-6.16-3.56-10-7.91-11.2-12.46C215.78,376.41,219.66,372.07,225.82,368.51Z" style="fill:#fff;opacity:0.5"/>
      <path d="M224.94,405.6a7.36,7.36,0,0,0-3.29-5.76,2.37,2.37,0,0,0-2.34-.25h0l-16,9.1h0a2.35,2.35,0,0,0-1,2.14,7.32,7.32,0,0,0,3.3,5.76,2.32,2.32,0,0,0,2.34.25h0L224,407.75h0A2.3,2.3,0,0,0,224.94,405.6Z" style="fill:#37474f"/>
      <path d="M224,407.75a2.3,2.3,0,0,0,1-2.15,6.14,6.14,0,0,0-.56-2.48l-20.57,11.76a6.29,6.29,0,0,0,1.85,1.73,2.32,2.32,0,0,0,2.34.25L224,407.75Z" style="fill:#263238"/>
      <path d="M206.91,412h0c.11.18.23.35.33.54C207.12,412.37,207,412.2,206.91,412Z"/>
      <path d="M151.93,443.76l55-31.74a8.69,8.69,0,0,0-2.84-3,3.07,3.07,0,0,0-3-.33h0l0,0L148.11,437Z" style="fill:#599D4C"/>
      <path d="M151.93,443.76l55-31.74a8.69,8.69,0,0,0-2.84-3,3.07,3.07,0,0,0-3-.33h0l0,0L148.11,437Z" style="fill:#fff;opacity:0.6000000000000001"/>
      <path d="M151.93,443.76,156,451l51.07-31.59a3.05,3.05,0,0,0,1.28-2.79,8.11,8.11,0,0,0-.42-2.42c-.05-.15-.12-.31-.17-.45a11.79,11.79,0,0,0-.53-1.14c-.11-.19-.22-.36-.32-.54Z" style="fill:#599D4C"/>
      <path d="M151.93,443.76,156,451l51.07-31.59a3.05,3.05,0,0,0,1.28-2.79,8.11,8.11,0,0,0-.42-2.42c-.05-.15-.12-.31-.17-.45a11.79,11.79,0,0,0-.53-1.14c-.11-.19-.22-.36-.32-.54Z" style="opacity:0.05"/>
      <path d="M152,450.53a12.54,12.54,0,0,1-5.63-9.84c0-3.61,2.56-5.07,5.68-3.25a12.56,12.56,0,0,1,5.63,9.84C157.67,450.89,155.13,452.35,152,450.53Z" style="fill:#599D4C"/>
      <g style="opacity:0.30000000000000004">
        <path d="M152,450.53a12.54,12.54,0,0,1-5.63-9.84c0-3.61,2.56-5.07,5.68-3.25a12.56,12.56,0,0,1,5.63,9.84C157.67,450.89,155.13,452.35,152,450.53Z"/>
      </g>
    </g>
  </g>
</svg>