<svg xmlns="http://www.w3.org/2000/svg" viewBox="0 0 235 58"><style>.st0{display:none;fill:#FFFFFF;} .st1{fill:#FFF;} .st2{fill:#F1F1F1;} .st3{fill:#F00900;}</style><path class="st0" d="M-25.7 0h285v58h-285z"/><path class="st1" d="M57.2 56.9h-5.9v-9.4h1.8v7.7h4.1v1.7zm-.5-9.2h1.5l-.5 2.8h-1v-2.8zm3.2 0h1.8v9.4h-1.8v-9.4zm5.8 4.4l-.7-1.5h-.1l.2 1.5v4.8h-1.7v-9.4h1.4l3.5 5L69 54h.1l-.2-1.5v-4.8h1.7v9.4h-1.4l-3.5-5zm9.5 1l.2 1.6h.1l.2-1.6 1.8-5.4h1.9l-3.5 9.4h-1.2l-3.4-9.4h2.1l1.8 5.4zm5-5.4h5.5v1.6H82v2.1h3.4V53H82v2.3h3.7v1.6h-5.6l.1-9.2zm10.9 6.8c0-.3-.1-.6-.3-.7-.2-.2-.5-.3-.8-.5-.3-.1-.7-.3-1-.5-.3-.1-.7-.3-1-.6-.3-.2-.6-.5-.8-.8-.2-.3-.3-.8-.3-1.2 0-.5.1-.8.2-1.1s.3-.6.7-.8c.2-.2.6-.3 1-.5.3-.1.8-.1 1.2-.1.6 0 1 0 1.6.1.5.1.9.2 1.1.5l-.6 1.6c-.2-.1-.5-.2-.9-.3-.3-.1-.8-.1-1.2-.1-.5 0-.8.1-1 .2-.2.1-.3.5-.3.7s.1.5.3.7c.2.2.5.3.8.5.3.1.7.3 1 .5.3.1.7.3 1 .6.3.2.6.5.8.8.2.3.3.8.3 1.2s-.1.9-.2 1.2-.3.7-.7.9c-.3.2-.7.5-1.1.6-.5.1-.9.2-1.4.2-.7 0-1.2-.1-1.8-.2-.5-.1-.9-.2-1.1-.3l.6-1.6c.1 0 .2.1.3.2.1.1.3.1.6.2.2 0 .5.1.6.1h.7c.6 0 .9-.1 1.2-.2.4-.7.5-1 .5-1.3zm9.7-5.2h-2.7V57h-1.9v-7.7h-2.7v-1.6h7.2l.1 1.6zm1.1-1.6h1.8v9.4h-1.8v-9.4zm7.6 6.8c0-.3-.1-.6-.3-.7-.2-.2-.5-.3-.8-.5-.3-.1-.7-.3-1-.5-.3-.1-.7-.3-1-.6-.3-.2-.6-.5-.8-.8s-.3-.8-.3-1.2c0-.5.1-.8.2-1.1.1-.3.3-.6.7-.8.2-.2.6-.3 1-.5.3-.1.8-.1 1.2-.1.6 0 1 0 1.6.1.5.1.9.2 1.1.5l-.6 1.6c-.2-.1-.5-.2-.9-.3-.3-.1-.8-.1-1.2-.1s-.8.1-1 .2c-.2.1-.3.5-.3.7s.1.5.3.7.5.3.8.5c.3.1.7.3 1 .5.3.1.7.3 1 .6.3.2.6.5.8.8s.3.8.3 1.2c0 .5-.1.9-.2 1.2-.1.3-.3.7-.7.9-.3.2-.7.5-1.1.6-.5.1-.9.2-1.4.2-.7 0-1.2-.1-1.8-.2-.5-.1-.9-.2-1.1-.3l.6-1.6c.1 0 .2.1.3.2.1.1.3.1.6.2.2 0 .5.1.6.1h.7c.6 0 .9-.1 1.2-.2.4-.7.5-1 .5-1.3zm7.1 0c0-.3-.1-.6-.3-.7-.2-.2-.5-.3-.8-.5-.3-.1-.7-.3-1-.5-.3-.1-.7-.3-1-.6-.3-.2-.6-.5-.8-.8s-.3-.8-.3-1.2c0-.5.1-.8.2-1.1.1-.3.3-.6.7-.8.2-.2.6-.3 1-.5.3-.1.8-.1 1.2-.1.6 0 1 0 1.6.1.5.1.9.2 1.1.5l-.6 1.1c-.2-.1-.5-.2-.9-.3-.3-.1-.8-.1-1.2-.1-.5 0-.8.1-1 .2-.2.1-.3.5-.3.7s.1.5.3.7.5.3.8.5c.3.1.7.3 1 .5.3.1.7.3 1 .6.3.2.6.5.8.8s.3.8.3 1.2c0 .5-.1.9-.2 1.2-.1.3-.3.7-.7.9-.3.2-.7.5-1.1.6s-.9.2-1.4.2c-.7 0-1.2-.1-1.8-.2-.5-.1-.9-.2-1.1-.3l.6-1.6c.1 0 .2.1.3.2.1.1.3.1.6.2.2 0 .5.1.6.1h.7c.6 0 .9-.1 1.2-.2.2-.2.5-.5.5-.8zm3-6.8h5.5v1.6h-3.7v2.1h3.4V53h-3.4v2.3h3.7v1.6h-5.6l.1-9.2c-.1 0 0 0 0 0zm14.1 4.4l.2-1.8h-.1l-.6 1.5-2 3.5h-.6l-2.1-3.5-.6-1.5h-.1l.2 1.8v4.8h-1.7v-9.4h1.7l2.5 4.3.5 1 .5-1.1 2.4-4.2h1.7v9.4h-1.8l-.1-4.8zm3.4-4.4h5.5v1.6H139v2.1h3.4V53H139v2.3h3.7v1.6h-5.6v-9.2zm9.3 4.4l-.7-1.5h-.1l.2 1.5v4.8h-1.7v-9.4h1.4l3.5 5 .7 1.5h.1l-.2-1.5v-4.8h1.7v9.4h-1.4l-3.5-5zm13-2.8h-2.7V57h-1.8v-7.7h-2.7v-1.6h7.2v1.6zm3.9-1.6h1.8v9.4h-1.8v-9.4zm10.9 4.4l.2-1.8h-.1l-.6 1.5-2 3.5h-.6l-2.1-3.5-.6-1.5h-.1l.2 1.8v4.8h-1.7v-9.4h1.7l2.5 4.3.5 1 .5-1.1 2.4-4.2h1.7v9.4h-1.8l-.1-4.8zm10.7 0l.2-1.8h-.1l-.6 1.5-2 3.5h-.6l-2.1-3.5-.6-1.5h-.1l.2 1.8v4.8h-1.7v-9.4h1.7l2.5 4.3.5 1 .5-1.1 2.4-4.2h1.7v9.4H185l-.1-4.8zm3 .2c0-1.6.3-2.7 1-3.6.7-.8 1.7-1.2 2.9-1.2.7 0 1.2.1 1.7.3s.9.6 1.2 1c.3.5.6.9.7 1.6.1.6.2 1.2.2 2 0 1.6-.3 2.7-1 3.6-.7.8-1.7 1.2-2.9 1.2-.7 0-1.2-.1-1.8-.3-.5-.2-.9-.6-1.2-1-.3-.5-.6-.9-.7-1.6 0-.6-.1-1.3-.1-2zm1.9 0c0 .5 0 .9.1 1.2.1.5.2.8.3 1 .1.3.3.5.7.7.2.1.6.2.9.2.7 0 1.1-.2 1.5-.8.3-.5.6-1.4.6-2.5 0-.5 0-.9-.1-1.2s-.2-.7-.3-1-.3-.6-.7-.7c-.2-.1-.6-.2-.9-.2-.7 0-1.1.2-1.5.8-.3.6-.6 1.4-.6 2.5zm13.6-2.5c0 .2 0 .5-.1.7s-.1.5-.3.7c-.1.2-.3.3-.6.5-.2.1-.5.2-.8.3v.1c.2 0 .6.1.8.2.2.1.5.2.7.5.2.2.3.5.5.7.1.2.1.6.1.9 0 .5-.1.9-.3 1.2s-.5.7-.8.9-.7.3-1.1.5c-.5.1-.9.1-1.4.1h-1.4c-.2 0-.6 0-.8-.1-.2 0-.6-.1-.8-.1v-9.1c.1 0 .3 0 .6-.1.2 0 .5 0 .7-.1h1.6c.5 0 .9 0 1.2.1.5.1.8.2 1.1.3s.6.5.8.7c.1.2.3.7.3 1.1zm-3.9 1.7h1c.3-.1.7-.2.9-.5s.3-.5.3-.8c0-.2 0-.5-.1-.6l-.3-.3s-.3-.1-.5-.2H199v2.5l.5-.1zm.6 4.1c.2 0 .5 0 .7-.1.2 0 .3-.1.6-.2.1-.1.3-.2.3-.5.1-.1.1-.3.1-.6s-.1-.6-.2-.7c-.1-.1-.2-.3-.5-.3-.2-.1-.3-.1-.7-.2h-1.7v2.6h1.4zm5.1-7.9h1.8v9.4h-1.8v-9.4zm9.4 9.2h-5.9v-9.4h1.8v7.7h4.1v1.7zm1.2-9.2h1.8v9.4h-1.8v-9.4zm3.6 0h5.5v1.6h-3.7v2.1h3.4V53h-3.4v2.3h3.7v1.6h-5.6v-9.1c-.1-.1.1-.1.1-.1zm6.9 0c.2 0 .5-.1.7-.1s.5 0 .7-.1h1.3c.5 0 .9 0 1.2.1.5.1.8.2 1.1.5.3.2.6.5.8.8s.3.8.3 1.2c0 .8-.2 1.4-.6 1.9-.3.5-.8.8-1.5 1l.7.5 2.1 3.5H231l-2.1-3.6-.9-.2V57h-1.8l.1-9.3zm2.9 1.5h-1.1v2.7h.8c.5 0 .9-.1 1.2-.3.3-.2.5-.6.5-1.1s-.1-.7-.3-.9c-.3-.3-.7-.4-1.1-.4z"/><path class="st2" d="M70.1 34.5H59.7l-2.6 7.6h-6.6L62.7 7.8h5L80 42.1h-7l-2.9-7.6zm-8.6-5.3h7.3l-2.5-7.6-1-5.3h-.2l-1 5.4-2.6 7.5zM82.3 8.3c.7-.1 1.5-.2 2.3-.2.8-.1 1.7-.1 2.6-.1s1.8 0 2.6-.1h2.3c2.9 0 5.4.5 7.6 1.2 2.1.8 3.8 2 5.1 3.5 1.4 1.5 2.3 3.3 2.8 5.3s.9 4.3.9 6.8c0 2.3-.3 4.4-.9 6.5-.6 2.1-1.5 3.9-2.8 5.5-1.4 1.6-3 2.9-5.3 3.9-2.1 1-4.8 1.5-8 1.5h-2c-.8 0-1.7-.1-2.6-.1s-1.8-.1-2.6-.1-1.5-.1-1.8-.1V8.3h-.2zm10.2 5.4h-2.1s-1.2.1-1.6.1v22.3c.1 0 .3 0 .7.1h2.7c1.8 0 3.4-.3 4.6-1s2.1-1.5 2.9-2.6c.7-1.1 1.2-2.4 1.5-3.7.3-1.5.5-2.8.5-4.4 0-1.4-.1-2.6-.3-3.9-.2-1.4-.7-2.5-1.4-3.5s-1.6-1.9-2.8-2.6c-1.4-.4-2.9-.8-4.7-.8zm19 11.3c0-5.5 1.2-9.8 3.6-12.9 2.5-3 6-4.5 10.5-4.5 2.4 0 4.4.5 6.2 1.2 1.8.8 3.3 2 4.4 3.5 1.1 1.5 2 3.4 2.6 5.4.6 2.1.9 4.5.9 7.1 0 5.5-1.2 9.8-3.7 12.9-2.5 3-6 4.5-10.5 4.5-2.4 0-4.5-.5-6.3-1.2-1.8-.8-3.3-2-4.4-3.5-1.1-1.5-2-3.4-2.6-5.4-.5-2.1-.7-4.5-.7-7.1zm6.9 0c0 1.7.1 3.3.5 4.6.3 1.5.7 2.6 1.4 3.6.6 1 1.4 1.8 2.3 2.4.9.6 2 .9 3.3.9 2.4 0 4.1-.9 5.4-2.7 1.2-1.8 1.9-4.7 1.9-8.8 0-1.6-.1-3.2-.5-4.5-.2-1.4-.7-2.6-1.2-3.6-.6-1-1.4-1.9-2.3-2.5-.9-.6-2-.9-3.4-.9-2.4 0-4.1.9-5.4 2.8-1.5 1.8-2 4.8-2 8.7zm51.3-.5l.7-6.7h-.3l-2 5.3-7.1 12.4h-2.1l-7.6-12.4-2.1-5.3.9 6.5v17.3h-6.2V8.3h6l8.9 15.2 1.6 3.8h.2l1.5-3.9 8.5-15.1h5.9v33.3H170l-.3-17.1zm10.7.5c0-5.5 1.2-9.8 3.6-12.9 2.5-3 6-4.5 10.5-4.5 2.4 0 4.4.5 6.2 1.2 1.8.8 3.3 2 4.4 3.5 1.1 1.5 2 3.4 2.6 5.4.6 2.1.9 4.5.9 7.1 0 5.5-1.2 9.8-3.7 12.9-2.5 3-6 4.5-10.5 4.5-2.4 0-4.5-.5-6.3-1.2-1.8-.8-3.3-2-4.4-3.5-1.1-1.5-2-3.4-2.6-5.4-.4-2.1-.7-4.5-.7-7.1zm6.8 0c0 1.7.1 3.3.5 4.6.3 1.5.7 2.6 1.4 3.6.6 1 1.4 1.8 2.3 2.4.9.6 2 .9 3.3.9 2.4 0 4.1-.9 5.4-2.7 1.2-1.8 1.9-4.7 1.9-8.8 0-1.6-.1-3.2-.5-4.5-.2-1.4-.7-2.6-1.2-3.6-.6-1-1.4-1.9-2.3-2.5-.9-.6-2-.9-3.4-.9-2.4 0-4.1.9-5.4 2.8-1.4 1.8-2 4.8-2 8.7zm39.9 7.7c0-1-.3-1.8-1.1-2.5s-1.7-1.2-2.8-1.7c-1.1-.6-2.4-1-3.6-1.6-1.4-.6-2.5-1.2-3.6-2s-2-1.8-2.8-3-1.1-2.7-1.1-4.6c0-1.6.2-3 .8-4.2s1.4-2.1 2.3-2.9c1-.8 2.1-1.4 3.5-1.8 1.4-.3 2.9-.6 4.5-.6 1.9 0 3.7.1 5.4.5 1.7.3 3.2.8 4.3 1.5l-2 5.4c-.7-.5-1.7-.9-3.2-1.2-1.4-.3-2.9-.6-4.5-.6-1.5 0-2.7.3-3.5.9-.8.6-1.2 1.5-1.2 2.4s.3 1.7 1.1 2.4 1.7 1.2 2.8 1.8c1.1.6 2.4 1.1 3.6 1.7 1.4.6 2.5 1.2 3.6 2s2 1.8 2.8 3c.8 1.2 1.1 2.7 1.1 4.4 0 1.8-.3 3.3-.9 4.6-.6 1.2-1.5 2.4-2.5 3.2-1 .9-2.4 1.5-3.8 1.9-1.5.5-3.2.6-5 .6-2.4 0-4.5-.2-6.3-.7s-3.2-.9-3.9-1.4l2.1-5.5c.3.2.8.5 1.4.6.6.2 1.1.5 1.9.6.7.2 1.5.3 2.3.5.8.1 1.6.2 2.4.2 1.9 0 3.4-.3 4.4-1 1-.5 1.5-1.6 1.5-2.9z"/><path class="st1" d="M3 47h41.8v9.9H3z"/><path class="st3" d="M57.2 1h-41L1.4 42.1h41z"/></svg>