<!DOCTYPE svg PUBLIC "-//W3C//DTD SVG 1.1//EN" "http://www.w3.org/Graphics/SVG/1.1/DTD/svg11.dtd">
<!-- Uploaded to: SVG Repo, www.svgrepo.com, Transformed by: SVG Repo Mixer Tools -->
<svg version="1.1" id="_x32_" xmlns="http://www.w3.org/2000/svg" xmlns:xlink="http://www.w3.org/1999/xlink" width="800px" height="800px" viewBox="0 0 512 512" xml:space="preserve" fill="#000000">
<g id="SVGRepo_bgCarrier" stroke-width="0"/>
<g id="SVGRepo_tracerCarrier" stroke-linecap="round" stroke-linejoin="round"/>
<g id="SVGRepo_iconCarrier"> <style type="text/css">  .st0{fill:#4B8240;}  </style> <g> <path class="st0" d="M294.299,119.354c3.141,0,6.297-0.406,9.391-1.25l1.203-0.328v-12.891l-2.203,0.828 c-2.75,1.031-5.594,1.547-8.391,1.547c-8.328,0-15.906-4.188-20.344-11.125h24.391l1.891-9.156h-29.859 c-0.219-1.328-0.344-2.672-0.344-3.969c0-0.531,0.031-1.078,0.078-1.594h31.266l1.891-9.156h-30.688 c4.063-8.156,12.516-13.5,21.719-13.5c3.172,0,6.328,0.641,9.344,1.922l1.844,0.766l2.469-12.125l-1.313-0.484 c-3.969-1.438-8.125-2.188-12.344-2.188c-15.906,0-30.016,10.469-34.703,25.609h-6.906v9.156h5.281 c-0.031,0.516-0.031,1.063-0.031,1.594c0,1.266,0.078,2.578,0.25,3.969h-5.5v9.156h7.75 C265.846,110.088,279.331,119.354,294.299,119.354z"/> <path class="st0" d="M287.752,162.229c43.75,0,79.219-35.469,79.219-79.219S331.502,3.776,287.752,3.776 S208.534,39.26,208.534,83.01S244.002,162.229,287.752,162.229z M287.752,23.588c32.766,0,59.422,26.641,59.422,59.422 c0,32.766-26.656,59.406-59.422,59.406s-59.422-26.641-59.422-59.406C228.331,50.229,254.987,23.588,287.752,23.588z"/> <path class="st0" d="M507.471,170.323c-3.469-1.156-7.219,0.719-8.375,4.203c-3,8.875-7,13.938-11.5,17.297 c-1.328,0.984-2.75,1.781-4.203,2.516c0.734-2.719,1.125-5.516,1.125-8.359c0-4.453-1-9.047-3.438-13.156 c-2.125-3.547-5.094-6.375-8.5-8.234c-3.391-1.906-7.219-2.891-11.094-2.891c-3.734,0-7.547,0.969-11.031,2.906 c-0.047,0.016-0.109,0.031-0.141,0.063c-0.094,0.063-0.188,0.078-0.266,0.125l-0.016,0.016c0,0,0,0-0.016,0l0,0l-0.156,0.094 c-0.016,0.016-0.016,0.016-0.016,0.016s-0.016,0-0.016,0.016c-0.141,0.063-0.234,0.156-0.344,0.25 c-0.016,0-0.031,0.016-0.047,0.016c-3.281,2.109-5.891,4.891-7.672,8.109c-1.891,3.391-2.875,7.203-2.875,11.094 c0,3.969,1.047,8.016,3.219,11.656h0.016c2.719,4.531,6.766,8.203,11.438,10.891c0.891,0.516,1.844,0.953,2.781,1.406 c-2.188,1.375-4.641,2.656-7.344,3.75c-3.594,1.469-7.641,2.547-12.016,3.141c-14.671-22.531-36.531-43.266-67.906-60.688 c-4.984-2.766-10.078-5.203-15.25-7.359c-8.797,9.063-19.438,16.344-31.297,21.188c-4.672,1.906-5.188,5.844,0.234,6.531 c4.813,0.594,9.609,1.297,14.375,2.125v23.813c-40.203-5.078-70.172-5.078-110.391,0v-23.813 c6.828-1.156,13.688-2.125,20.578-2.859c6.375-0.672,6.313-5.281,0.359-8.172c-11.25-5.438-21.219-13.109-29.344-22.406 c-25.172,6.891-47.563,16.844-64.094,27.172c-29.516-18.656-55.766-13.797-63.719-11.438l10.859,57.906 c-21.688,26.813-39.156,35.797-39.156,35.797l-43.828,8.641c-6.203,0-11.984,3.125-15.375,8.313 c-3.406,5.172-3.984,11.719-1.531,17.406l33.656,95.859c2.906,6.75,9.547,11.125,16.891,11.125l71.875,15.047l30.313,76.297 c15.156,33.563,55.734,26.516,57.359-1.078l6.5-37.875h104.984c0,0,3.25,16.875,4.859,31.391 c2.438,21.906,34.641,50.328,67.109,6.484c37.39-50.469,97-166.047,49.031-257.297c6.109-1.375,11.672-3.469,16.391-6.078 c4.063-2.234,7.531-4.781,10.453-7.406c1.063-0.969,2.016-1.938,2.922-2.922c0.047-0.016,0.125-0.031,0.188-0.047v0.016 c7.047-1.156,14.625-3.422,21.438-8.469c6.828-5.031,12.563-12.797,16.188-23.766C512.814,175.229,510.939,171.479,507.471,170.323 z M470.143,192.448c-0.734,2.063-1.781,3.984-3.016,5.547c-2.266-0.328-4.734-1.234-6.969-2.516 c-2.953-1.672-5.422-4.078-6.672-6.203v0.016c-0.922-1.563-1.359-3.219-1.359-4.891c0-1.625,0.422-3.25,1.219-4.672 c0.781-1.406,1.906-2.594,3.375-3.5c1.531-0.875,3.141-1.281,4.766-1.281c1.625-0.016,3.25,0.406,4.672,1.188 c1.422,0.797,2.641,1.953,3.547,3.469c1,1.672,1.578,3.859,1.578,6.375C471.283,188.073,470.893,190.338,470.143,192.448z"/> </g> </g>
</svg>